<svg width="22" height="26" viewBox="0 0 22 26" fill="none" xmlns="http://www.w3.org/2000/svg">
<path d="M14.3333 1V6.33333C14.3333 6.68695 14.4738 7.02609 14.7239 7.27614C14.9739 7.52619 15.3131 7.66667 15.6667 7.66667H21" stroke="white" stroke-width="2" stroke-linecap="round" stroke-linejoin="round"/>
<path d="M18.3333 19.6667H9.00001C8.29277 19.6667 7.61449 19.3857 7.11439 18.8856C6.6143 18.3855 6.33334 17.7072 6.33334 17V3.66667C6.33334 2.95942 6.6143 2.28115 7.11439 1.78105C7.61449 1.28095 8.29277 1 9.00001 1H14.3333L21 7.66667V17C21 17.7072 20.7191 18.3855 20.219 18.8856C19.7189 19.3857 19.0406 19.6667 18.3333 19.6667Z" stroke="white" stroke-width="2" stroke-linecap="round" stroke-linejoin="round"/>
<path d="M15.6667 19.6666V22.3333C15.6667 23.0405 15.3857 23.7188 14.8856 24.2189C14.3855 24.719 13.7072 24.9999 13 24.9999H3.66667C2.95942 24.9999 2.28115 24.719 1.78105 24.2189C1.28095 23.7188 1 23.0405 1 22.3333V8.99992C1 8.29267 1.28095 7.6144 1.78105 7.1143C2.28115 6.6142 2.95942 6.33325 3.66667 6.33325H6.33333" stroke="white" stroke-width="2" stroke-linecap="round" stroke-linejoin="round"/>
</svg>
