<svg width="30" height="30" viewBox="0 0 30 30" fill="none" xmlns="http://www.w3.org/2000/svg">
<mask id="path-1-inside-1_4_16987" fill="white">
<path d="M27.5489 15.9899C27.3041 15.7162 27.1691 15.3643 27.1691 15C27.1691 14.6357 27.3041 14.2838 27.5489 14.0101L29.5032 11.8504C29.7185 11.6145 29.8522 11.3176 29.8852 11.0023C29.9181 10.6871 29.8485 10.3697 29.6864 10.0957L26.6328 4.90637C26.4723 4.63269 26.228 4.41575 25.9346 4.28649C25.6413 4.15722 25.3139 4.12222 24.9991 4.18647L22.1287 4.75639C21.7635 4.83053 21.3832 4.77077 21.0598 4.58842C20.7363 4.40606 20.492 4.11371 20.3729 3.76653L19.4415 1.0219C19.3391 0.72401 19.1439 0.465274 18.8837 0.282264C18.6234 0.0992549 18.3111 0.00122803 17.991 0.00203966H11.8838C11.5509 -0.0150311 11.2214 0.0754192 10.9457 0.259576C10.67 0.443732 10.4632 0.711472 10.357 1.0219L9.502 3.76653C9.38291 4.11371 9.13858 4.40606 8.81511 4.58842C8.49164 4.77077 8.11141 4.83053 7.74618 4.75639L4.79944 4.18647C4.50103 4.14505 4.19681 4.1913 3.92511 4.31941C3.65341 4.44752 3.42639 4.65175 3.27263 4.90637L0.219022 10.0957C0.0528443 10.3666 -0.0218745 10.6822 0.00554772 10.9974C0.0329699 11.3125 0.161129 11.6111 0.371702 11.8504L2.31075 14.0101C2.55552 14.2838 2.69052 14.6357 2.69052 15C2.69052 15.3643 2.55552 15.7162 2.31075 15.9899L0.371702 18.1496C0.161129 18.3889 0.0329699 18.6875 0.00554772 19.0026C-0.0218745 19.3178 0.0528443 19.6334 0.219022 19.9043L3.27263 25.0936C3.4331 25.3673 3.67742 25.5842 3.97077 25.7135C4.26412 25.8428 4.59153 25.8778 4.90632 25.8135L7.77671 25.2436C8.14195 25.1695 8.52218 25.2292 8.84565 25.4116C9.16912 25.5939 9.41345 25.8863 9.53254 26.2335L10.4639 28.9781C10.5701 29.2885 10.7769 29.5563 11.0526 29.7404C11.3283 29.9246 11.6578 30.015 11.9907 29.998H18.0979C18.418 29.9988 18.7303 29.9007 18.9905 29.7177C19.2508 29.5347 19.446 29.276 19.5484 28.9781L20.4797 26.2335C20.5988 25.8863 20.8432 25.5939 21.1666 25.4116C21.4901 25.2292 21.8703 25.1695 22.2356 25.2436L25.106 25.8135C25.4208 25.8778 25.7482 25.8428 26.0415 25.7135C26.3349 25.5842 26.5792 25.3673 26.7396 25.0936L29.7933 19.9043C29.9554 19.6303 30.0249 19.3129 29.992 18.9977C29.9591 18.6824 29.8254 18.3855 29.61 18.1496L27.5489 15.9899ZM25.2739 17.9996L26.4954 19.3494L24.541 22.679L22.7394 22.319C21.6398 22.0982 20.4959 22.2817 19.5249 22.8346C18.5539 23.3876 17.8233 24.2715 17.4719 25.3186L16.8917 26.9984H12.9831L12.4335 25.2886C12.0821 24.2415 11.3515 23.3576 10.3805 22.8046C9.40952 22.2517 8.26563 22.0682 7.16599 22.289L5.36436 22.649L3.37951 19.3344L4.60096 17.9846C5.35207 17.1597 5.76733 16.0917 5.76733 14.985C5.76733 13.8783 5.35207 12.8103 4.60096 11.9854L3.37951 10.6356L5.33382 7.33604L7.13545 7.69599C8.23509 7.9168 9.37899 7.73331 10.35 7.18036C11.321 6.62741 12.0515 5.7435 12.4029 4.6964L12.9831 3.00163H16.8917L17.4719 4.7114C17.8233 5.75849 18.5539 6.64241 19.5249 7.19536C20.4959 7.74831 21.6398 7.93179 22.7394 7.71099L24.541 7.35104L26.4954 10.6806L25.2739 12.0304C24.5312 12.8534 24.1211 13.9152 24.1211 15.015C24.1211 16.1148 24.5312 17.1766 25.2739 17.9996ZM14.9374 9.00082C13.7295 9.00082 12.5488 9.35266 11.5444 10.0119C10.5401 10.6711 9.75733 11.608 9.29509 12.7042C8.83285 13.8004 8.71191 15.0067 8.94756 16.1704C9.18321 17.3341 9.76486 18.4031 10.619 19.2421C11.4731 20.0811 12.5613 20.6524 13.746 20.8839C14.9307 21.1154 16.1586 20.9966 17.2746 20.5425C18.3905 20.0885 19.3443 19.3195 20.0154 18.333C20.6865 17.3464 21.0447 16.1865 21.0447 15C21.0447 13.4089 20.4012 11.883 19.2559 10.7579C18.1106 9.63287 16.5572 9.00082 14.9374 9.00082ZM14.9374 17.9996C14.3335 17.9996 13.7431 17.8237 13.2409 17.4941C12.7388 17.1645 12.3474 16.696 12.1163 16.1479C11.8851 15.5998 11.8247 14.9967 11.9425 14.4148C12.0603 13.8329 12.3511 13.2985 12.7782 12.879C13.2053 12.4595 13.7494 12.1738 14.3417 12.058C14.934 11.9423 15.548 12.0017 16.106 12.2287C16.664 12.4558 17.1409 12.8402 17.4764 13.3335C17.812 13.8268 17.991 14.4067 17.991 15C17.991 15.7955 17.6693 16.5585 17.0967 17.121C16.524 17.6836 15.7473 17.9996 14.9374 17.9996Z"/>
</mask>
<path d="M27.5489 15.9899C27.3041 15.7162 27.1691 15.3643 27.1691 15C27.1691 14.6357 27.3041 14.2838 27.5489 14.0101L29.5032 11.8504C29.7185 11.6145 29.8522 11.3176 29.8852 11.0023C29.9181 10.6871 29.8485 10.3697 29.6864 10.0957L26.6328 4.90637C26.4723 4.63269 26.228 4.41575 25.9346 4.28649C25.6413 4.15722 25.3139 4.12222 24.9991 4.18647L22.1287 4.75639C21.7635 4.83053 21.3832 4.77077 21.0598 4.58842C20.7363 4.40606 20.492 4.11371 20.3729 3.76653L19.4415 1.0219C19.3391 0.72401 19.1439 0.465274 18.8837 0.282264C18.6234 0.0992549 18.3111 0.00122803 17.991 0.00203966H11.8838C11.5509 -0.0150311 11.2214 0.0754192 10.9457 0.259576C10.67 0.443732 10.4632 0.711472 10.357 1.0219L9.502 3.76653C9.38291 4.11371 9.13858 4.40606 8.81511 4.58842C8.49164 4.77077 8.11141 4.83053 7.74618 4.75639L4.79944 4.18647C4.50103 4.14505 4.19681 4.1913 3.92511 4.31941C3.65341 4.44752 3.42639 4.65175 3.27263 4.90637L0.219022 10.0957C0.0528443 10.3666 -0.0218745 10.6822 0.00554772 10.9974C0.0329699 11.3125 0.161129 11.6111 0.371702 11.8504L2.31075 14.0101C2.55552 14.2838 2.69052 14.6357 2.69052 15C2.69052 15.3643 2.55552 15.7162 2.31075 15.9899L0.371702 18.1496C0.161129 18.3889 0.0329699 18.6875 0.00554772 19.0026C-0.0218745 19.3178 0.0528443 19.6334 0.219022 19.9043L3.27263 25.0936C3.4331 25.3673 3.67742 25.5842 3.97077 25.7135C4.26412 25.8428 4.59153 25.8778 4.90632 25.8135L7.77671 25.2436C8.14195 25.1695 8.52218 25.2292 8.84565 25.4116C9.16912 25.5939 9.41345 25.8863 9.53254 26.2335L10.4639 28.9781C10.5701 29.2885 10.7769 29.5563 11.0526 29.7404C11.3283 29.9246 11.6578 30.015 11.9907 29.998H18.0979C18.418 29.9988 18.7303 29.9007 18.9905 29.7177C19.2508 29.5347 19.446 29.276 19.5484 28.9781L20.4797 26.2335C20.5988 25.8863 20.8432 25.5939 21.1666 25.4116C21.4901 25.2292 21.8703 25.1695 22.2356 25.2436L25.106 25.8135C25.4208 25.8778 25.7482 25.8428 26.0415 25.7135C26.3349 25.5842 26.5792 25.3673 26.7396 25.0936L29.7933 19.9043C29.9554 19.6303 30.0249 19.3129 29.992 18.9977C29.9591 18.6824 29.8254 18.3855 29.61 18.1496L27.5489 15.9899ZM25.2739 17.9996L26.4954 19.3494L24.541 22.679L22.7394 22.319C21.6398 22.0982 20.4959 22.2817 19.5249 22.8346C18.5539 23.3876 17.8233 24.2715 17.4719 25.3186L16.8917 26.9984H12.9831L12.4335 25.2886C12.0821 24.2415 11.3515 23.3576 10.3805 22.8046C9.40952 22.2517 8.26563 22.0682 7.16599 22.289L5.36436 22.649L3.37951 19.3344L4.60096 17.9846C5.35207 17.1597 5.76733 16.0917 5.76733 14.985C5.76733 13.8783 5.35207 12.8103 4.60096 11.9854L3.37951 10.6356L5.33382 7.33604L7.13545 7.69599C8.23509 7.9168 9.37899 7.73331 10.35 7.18036C11.321 6.62741 12.0515 5.7435 12.4029 4.6964L12.9831 3.00163H16.8917L17.4719 4.7114C17.8233 5.75849 18.5539 6.64241 19.5249 7.19536C20.4959 7.74831 21.6398 7.93179 22.7394 7.71099L24.541 7.35104L26.4954 10.6806L25.2739 12.0304C24.5312 12.8534 24.1211 13.9152 24.1211 15.015C24.1211 16.1148 24.5312 17.1766 25.2739 17.9996ZM14.9374 9.00082C13.7295 9.00082 12.5488 9.35266 11.5444 10.0119C10.5401 10.6711 9.75733 11.608 9.29509 12.7042C8.83285 13.8004 8.71191 15.0067 8.94756 16.1704C9.18321 17.3341 9.76486 18.4031 10.619 19.2421C11.4731 20.0811 12.5613 20.6524 13.746 20.8839C14.9307 21.1154 16.1586 20.9966 17.2746 20.5425C18.3905 20.0885 19.3443 19.3195 20.0154 18.333C20.6865 17.3464 21.0447 16.1865 21.0447 15C21.0447 13.4089 20.4012 11.883 19.2559 10.7579C18.1106 9.63287 16.5572 9.00082 14.9374 9.00082ZM14.9374 17.9996C14.3335 17.9996 13.7431 17.8237 13.2409 17.4941C12.7388 17.1645 12.3474 16.696 12.1163 16.1479C11.8851 15.5998 11.8247 14.9967 11.9425 14.4148C12.0603 13.8329 12.3511 13.2985 12.7782 12.879C13.2053 12.4595 13.7494 12.1738 14.3417 12.058C14.934 11.9423 15.548 12.0017 16.106 12.2287C16.664 12.4558 17.1409 12.8402 17.4764 13.3335C17.812 13.8268 17.991 14.4067 17.991 15C17.991 15.7955 17.6693 16.5585 17.0967 17.121C16.524 17.6836 15.7473 17.9996 14.9374 17.9996Z" fill="white" stroke="white" stroke-width="2" mask="url(#path-1-inside-1_4_16987)"/>
</svg>
