<svg width="25" height="18" viewBox="0 0 25 18" fill="none" xmlns="http://www.w3.org/2000/svg">
<path d="M22.5 0H2.5C1.83757 0.00197841 1.20283 0.266006 0.734419 0.734419C0.266006 1.20283 0.00197841 1.83757 0 2.5V15C0.00197841 15.6624 0.266006 16.2972 0.734419 16.7656C1.20283 17.234 1.83757 17.498 2.5 17.5H22.5C23.1624 17.498 23.7972 17.234 24.2656 16.7656C24.734 16.2972 24.998 15.6624 25 15V2.5C24.998 1.83757 24.734 1.20283 24.2656 0.734419C23.7972 0.266006 23.1624 0.00197841 22.5 0ZM5 15L3.24 13.235L7.7125 8.75L3.2425 4.2675L5 2.5L11.25 8.75L5 15ZM21.25 15H12.5V12.5H21.25V15Z" fill="#26D6AE"/>
</svg>
