<svg width="20" height="26" viewBox="0 0 20 26" fill="none" xmlns="http://www.w3.org/2000/svg">
<path d="M16.9648 25.5C16.5667 25.5003 16.1724 25.4426 15.8046 25.3303C15.4368 25.218 15.1027 25.0532 14.8216 24.8455L0.888838 14.5791C0.607074 14.3718 0.383538 14.1257 0.231021 13.8547C0.0785049 13.5837 0 13.2932 0 12.9998C0 12.7065 0.0785049 12.416 0.231021 12.145C0.383538 11.874 0.607074 11.6278 0.888838 11.4206L14.8216 1.15416C15.103 0.946763 15.4372 0.78225 15.8049 0.67001C16.1727 0.557769 16.5668 0.5 16.9648 0.5C17.3629 0.5 17.757 0.557769 18.1248 0.67001C18.4925 0.78225 18.8266 0.946763 19.1081 1.15416C19.3896 1.36155 19.6128 1.60776 19.7652 1.87873C19.9175 2.14971 19.9959 2.44013 19.9959 2.73343C19.9959 3.02673 19.9175 3.31716 19.7652 3.58813C19.6128 3.8591 19.3896 4.10531 19.1081 4.3127L7.31863 12.9998L19.1081 21.6869C19.5334 21.9989 19.8234 22.397 19.9411 22.8306C20.0589 23.2642 19.9991 23.7138 19.7695 24.1224C19.5399 24.5309 19.1507 24.88 18.6513 25.1253C18.152 25.3705 17.565 25.501 16.9648 25.5Z" fill="#26D6AE"/>
</svg>
