<svg width="25" height="20" viewBox="0 0 25 20" fill="none" xmlns="http://www.w3.org/2000/svg">
<path d="M17.4863 1.17681L15.6075 2.94094H4.0625L3.8825 2.94799C3.33537 2.99049 2.82524 3.225 2.45335 3.60496C2.08146 3.98492 1.87502 4.48256 1.875 4.99908V7.6335L5.1375 5.70473C5.73834 5.34935 6.45977 5.22082 7.15711 5.34493C7.85445 5.46904 8.47613 5.83661 8.8975 6.37392L9.01625 6.53739C9.25803 6.89965 9.40287 7.31165 9.43835 7.73811C9.47384 8.16456 9.39892 8.59275 9.22 8.986L9.12125 9.18123L7.61125 11.8697C7.52212 12.0286 7.48664 12.2092 7.50955 12.3875C7.53246 12.5658 7.61268 12.7333 7.73947 12.8675C7.86626 13.0018 8.03358 13.0964 8.21908 13.1388C8.40457 13.1811 8.59939 13.1692 8.7775 13.1046L8.9 13.0505L11.1 11.8827C11.3064 11.7741 11.5487 11.7429 11.7785 11.7954C12.0083 11.8478 12.2085 11.98 12.3391 12.1655C12.4697 12.351 12.5209 12.576 12.4826 12.7955C12.4443 13.015 12.3192 13.2128 12.1325 13.3493L12.0263 13.4163L9.82 14.5877C9.30561 14.8601 8.71317 14.9733 8.1266 14.9113C7.54002 14.8493 6.98904 14.6152 6.5517 14.2423C6.11436 13.8693 5.81282 13.3763 5.6898 12.8331C5.56678 12.29 5.62851 11.7242 5.86625 11.2158L5.95375 11.0453L7.46375 8.35679C7.55444 8.19501 7.58943 8.0107 7.56389 7.82939C7.53834 7.64807 7.45351 7.47871 7.32116 7.34474C7.1888 7.21078 7.01545 7.11885 6.82511 7.08166C6.63477 7.04448 6.43685 7.06388 6.25875 7.1372L6.13625 7.19835L1.875 9.71752V16.1777C1.875 17.3138 2.855 18.2359 4.0625 18.2359H20.9375C21.5177 18.2359 22.0741 18.019 22.4843 17.6331C22.8945 17.2471 23.125 16.7236 23.125 16.1777V7.57823L25 5.81763V16.1777C25 16.6797 24.8949 17.1767 24.6908 17.6405C24.4866 18.1042 24.1874 18.5256 23.8101 18.8805C23.4329 19.2354 22.985 19.517 22.4922 19.709C21.9993 19.9011 21.471 20 20.9375 20H4.0625C2.98506 20 1.95175 19.5973 1.18988 18.8805C0.428012 18.1637 8.71898e-09 17.1915 8.71898e-09 16.1777V4.99908C-6.79334e-05 4.02277 0.396943 3.08344 1.10959 2.37379C1.82224 1.66414 2.79649 1.23797 3.8325 1.18269L4.0625 1.17681H17.4863ZM23.9687 0.641696L24.1313 0.782825L24.2825 0.935716C24.7467 1.44648 24.989 2.10323 24.961 2.77475C24.9329 3.44628 24.6366 4.08312 24.1313 4.55805L18.78 9.58345C18.4511 9.89195 18.0461 10.119 17.6012 10.2444L14.6925 11.0677C14.4741 11.1296 14.2419 11.1341 14.021 11.0807C13.8001 11.0273 13.5989 10.9181 13.4393 10.7648C13.2796 10.6116 13.1676 10.4202 13.1153 10.2113C13.0629 10.0025 13.0724 9.78411 13.1425 9.57992L14.0663 6.88081C14.2038 6.48094 14.44 6.11636 14.7563 5.81881L20.1187 0.781649C20.6238 0.306581 21.3007 0.0281858 22.0144 0.00202569C22.728 -0.0241344 23.4259 0.203865 23.9687 0.640519M21.4438 2.0283L16.0812 7.06663C15.976 7.16544 15.8971 7.28637 15.8512 7.41945L15.2925 9.05421L17.0625 8.55437C17.2107 8.51221 17.3455 8.43626 17.455 8.33327L22.805 3.30787L22.8988 3.20673C23.0468 3.0234 23.115 2.79381 23.0894 2.5648C23.0638 2.33579 22.9463 2.1246 22.7609 1.9743C22.5755 1.82399 22.3361 1.74589 22.0916 1.75593C21.847 1.76596 21.6146 1.86337 21.4438 2.0283Z" fill="white"/>
</svg>
