<svg width="26" height="19" viewBox="0 0 26 19" fill="none" xmlns="http://www.w3.org/2000/svg">
<path d="M0 19V15.675C0 15.0021 0.172545 14.3838 0.517636 13.8201C0.862727 13.2565 1.32048 12.8258 1.89091 12.5281C3.11212 11.9146 4.35303 11.4546 5.61364 11.1482C6.87424 10.8419 8.15455 10.6883 9.45455 10.6875C10.7545 10.6875 12.0348 10.8411 13.2955 11.1482C14.5561 11.4554 15.797 11.9154 17.0182 12.5281C17.5894 12.825 18.0475 13.2557 18.3926 13.8201C18.7377 14.3846 18.9099 15.0029 18.9091 15.675V19H0ZM21.2727 19V15.4375C21.2727 14.5667 21.0316 13.7303 20.5495 12.9283C20.0673 12.1264 19.3826 11.4388 18.4955 10.8656C19.5 10.9844 20.4455 11.1874 21.3318 11.4748C22.2182 11.7622 23.0455 12.1133 23.8136 12.5281C24.5227 12.924 25.0644 13.3641 25.4386 13.8486C25.8129 14.3331 26 14.8628 26 15.4375V19H21.2727ZM9.45455 9.5C8.15455 9.5 7.04167 9.0349 6.11591 8.10469C5.19015 7.17448 4.72727 6.05625 4.72727 4.75C4.72727 3.44375 5.19015 2.32552 6.11591 1.39531C7.04167 0.465104 8.15455 0 9.45455 0C10.7545 0 11.8674 0.465104 12.7932 1.39531C13.7189 2.32552 14.1818 3.44375 14.1818 4.75C14.1818 6.05625 13.7189 7.17448 12.7932 8.10469C11.8674 9.0349 10.7545 9.5 9.45455 9.5ZM21.2727 4.75C21.2727 6.05625 20.8098 7.17448 19.8841 8.10469C18.9583 9.0349 17.8455 9.5 16.5455 9.5C16.3288 9.5 16.053 9.47546 15.7182 9.42637C15.3833 9.37729 15.1076 9.32267 14.8909 9.2625C15.4227 8.62917 15.8316 7.92656 16.1176 7.15469C16.4036 6.38281 16.5462 5.58125 16.5455 4.75C16.5455 3.91875 16.4028 3.11719 16.1176 2.34531C15.8324 1.57344 15.4235 0.870833 14.8909 0.2375C15.1667 0.138541 15.4424 0.0744168 15.7182 0.0451251C15.9939 0.0158335 16.2697 0.000791667 16.5455 0C17.8455 0 18.9583 0.465104 19.8841 1.39531C20.8098 2.32552 21.2727 3.44375 21.2727 4.75ZM2.36364 16.625H16.5455V15.675C16.5455 15.4573 16.4915 15.2594 16.3835 15.0813C16.2756 14.9031 16.1326 14.7646 15.9545 14.6656C14.8909 14.1313 13.8174 13.7307 12.7341 13.4639C11.6508 13.1971 10.5576 13.0633 9.45455 13.0625C8.35151 13.0625 7.25833 13.1963 6.175 13.4639C5.09167 13.7315 4.01818 14.132 2.95455 14.6656C2.77727 14.7646 2.63427 14.9031 2.52555 15.0813C2.41682 15.2594 2.36285 15.4573 2.36364 15.675V16.625ZM9.45455 7.125C10.1045 7.125 10.6612 6.89265 11.1245 6.42794C11.5877 5.96323 11.819 5.40392 11.8182 4.75C11.8182 4.09687 11.5869 3.53796 11.1245 3.07325C10.662 2.60854 10.1053 2.37579 9.45455 2.375C8.80455 2.375 8.2483 2.60775 7.78582 3.07325C7.32333 3.53875 7.0917 4.09767 7.09091 4.75C7.09091 5.40313 7.32254 5.96244 7.78582 6.42794C8.24909 6.89344 8.80533 7.12579 9.45455 7.125Z" fill="white"/>
</svg>
