<svg width="500" height="500" viewBox="0 0 500 500" fill="none" xmlns="http://www.w3.org/2000/svg">
<mask id="mask0_4_17482" style="mask-type:luminance" maskUnits="userSpaceOnUse" x="0" y="0" width="500" height="500">
<path d="M500 0H0V500H500V0Z" fill="white"/>
</mask>
<g mask="url(#mask0_4_17482)">
<g opacity="0.25">
<path d="M365.115 430.294C351.276 422.304 331.863 419.548 314.214 422.023L376.843 385.627C383.684 381.652 383.647 375.206 376.762 371.231L233.409 288.467C226.524 284.492 215.397 284.492 208.556 288.467L159.57 316.935C138.375 307.577 108.043 308.488 88.7729 319.687C69.5029 330.886 68.0069 348.47 84.2289 360.718L66.1349 371.233C59.2939 375.208 59.3309 381.653 66.2159 385.628L209.569 468.393C216.454 472.368 227.581 472.368 234.422 468.393L274.649 445.015C270.427 455.25 275.239 466.492 289.078 474.482C310.211 486.683 344.393 486.683 365.388 474.482C386.383 462.281 386.248 442.495 365.115 430.294Z" fill="#87AEDD"/>
</g>
<path d="M148.9 338.891C148.335 345.172 142.424 349.439 137.09 351.737C131.282 354.24 124.895 355.249 118.593 355.168C112.161 355.085 105.594 353.856 99.794 351.002C94.733 348.512 89.361 343.994 89.378 337.85C89.366 342.324 89.679 346.021 92.903 349.514C97.054 354.011 103.303 356.432 109.181 357.646C120.649 360.014 136.265 358.87 144.977 350.041C148.482 346.489 148.96 342.744 148.974 338.02C148.962 338.312 148.937 338.602 148.9 338.891Z" fill="#ADCDFC"/>
<path d="M140.171 325.722C151.845 332.462 151.92 343.392 140.322 350.132C128.724 356.872 109.841 356.872 98.167 350.132C86.493 343.392 86.445 332.462 98.043 325.722C109.641 318.982 128.497 318.982 140.171 325.722Z" fill="#E2EDFF"/>
<path d="M124.485 312.098L124.412 338.146L119.855 340.794L119.928 314.746L124.485 312.098Z" fill="#C7D8F2"/>
<path d="M119.928 314.746L119.854 340.794L115.268 338.146L115.342 312.098L119.928 314.746Z" fill="#7BAEFF"/>
<path d="M124.485 312.098L119.928 314.746L115.341 312.098L119.898 309.45L124.485 312.098Z" fill="#4DA5DC"/>
<path d="M90.291 227.643C90.291 227.643 80.951 230.133 78.461 235.737C75.97 241.341 76.593 283.681 89.669 301.115C102.745 318.549 127.027 321.04 132.631 318.549C138.235 316.058 170.612 299.87 173.103 291.776C175.594 283.682 163.141 277.454 156.292 274.341C149.443 271.228 145.084 266.87 141.348 255.662C137.612 244.454 135.745 225.152 131.386 222.039C127.027 218.926 116.442 213.945 90.291 227.643Z" fill="#3AAEEF"/>
<path d="M148.9 338.891C148.335 345.172 142.424 349.439 137.09 351.737C131.282 354.24 124.895 355.249 118.593 355.168C112.161 355.085 105.594 353.856 99.794 351.002C94.733 348.512 89.361 343.994 89.378 337.85C89.366 342.324 89.679 346.021 92.903 349.514C97.054 354.011 103.303 356.432 109.181 357.646C120.649 360.014 136.265 358.87 144.977 350.041C148.482 346.489 148.96 342.744 148.974 338.02C148.962 338.312 148.937 338.602 148.9 338.891Z" fill="#ADCDFC"/>
<path d="M140.171 325.722C151.845 332.462 151.92 343.392 140.322 350.132C128.724 356.872 109.841 356.872 98.167 350.132C86.493 343.392 86.445 332.462 98.043 325.722C109.641 318.982 128.497 318.982 140.171 325.722Z" fill="#E2EDFF"/>
<path d="M124.485 312.098L124.412 338.146L119.855 340.794L119.928 314.746L124.485 312.098Z" fill="#C7D8F2"/>
<path d="M119.928 314.746L119.854 340.794L115.268 338.146L115.342 312.098L119.928 314.746Z" fill="#7BAEFF"/>
<path d="M124.485 312.098L119.928 314.746L115.341 312.098L119.898 309.45L124.485 312.098Z" fill="#4DA5DC"/>
<path d="M90.291 227.643C90.291 227.643 80.951 230.133 78.461 235.737C75.97 241.341 76.593 283.681 89.669 301.115C102.745 318.549 127.027 321.04 132.631 318.549C138.235 316.058 170.612 299.87 173.103 291.776C175.594 283.682 163.141 277.454 156.292 274.341C149.443 271.228 145.084 266.87 141.348 255.662C137.612 244.454 135.745 225.152 131.386 222.039C127.027 218.926 116.442 213.945 90.291 227.643Z" fill="#3AAEEF"/>
<path d="M146.117 216.377C146.117 216.377 130.795 203.694 127.68 203.399C123.942 203.107 119.279 204.377 118.062 209.676C116.845 214.975 119.668 219.007 122.478 220.549C125.288 222.091 149.944 233.791 154.303 233.768C158.661 233.745 161.443 229.995 158.617 225.34C155.79 220.685 146.117 216.377 146.117 216.377Z" fill="#E1E8F2"/>
<path d="M106.651 201.256C106.651 201.256 91.5666 213.197 90.2036 216.989C88.8406 220.781 89.0186 231.14 92.5806 237.875C96.1426 244.61 96.2156 270.035 97.6206 274.939C99.0256 279.843 112.484 280.749 120.685 278.74C128.886 276.731 141.913 269.864 139.295 260.554C135.428 246.806 136.347 232.956 136.658 228.581C136.97 224.205 135.86 213.311 133.48 206.088C132.978 204.564 127.605 202.435 127.605 202.435C127.605 202.435 122.032 199.843 106.651 201.256Z" fill="#0046A6"/>
<path d="M109.385 258.153C103.158 250.266 112.291 223.285 101.498 215.813C98.2071 213.534 95.3811 212.959 93.0401 213.254C91.5931 214.772 90.5211 216.105 90.2031 216.99C88.8401 220.782 89.0191 231.14 92.5811 237.875C96.1431 244.61 96.2151 270.035 97.6201 274.939C98.8991 279.403 110.156 280.546 118.353 279.201L130.14 266.87C130.14 266.87 115.611 266.04 109.385 258.153Z" fill="#003783"/>
<path d="M106.14 203.279C119.254 202.074 125.289 204.33 126.788 205.023C127.017 207.662 127.126 211.148 126.598 214.337C125.571 220.535 123.102 237.561 123.102 237.561C123.102 237.561 115.011 223.572 109.685 217.815C105.936 213.763 102.244 209.946 100.382 208.035C103.525 205.352 106.14 203.279 106.14 203.279Z" fill="#E1E8F2"/>
<path d="M119.632 200.502C119.632 200.502 119.6 200.698 119.662 201.006C119.891 202.143 120.605 205.046 120.772 206.265C120.932 207.433 119.701 209.531 116.53 209.623C113.358 209.715 107.918 208.655 105.943 204.968C106.055 204.29 105.484 197.31 104.867 193.847L119.632 200.502Z" fill="#FF8654"/>
<path d="M124.932 217.8L119.086 212.623L114.41 220.806L109.696 217.829C115.022 223.594 123.101 237.561 123.101 237.561C123.101 237.561 125.161 223.359 126.3 216.176L124.932 217.8Z" fill="#CFDAE4"/>
<path d="M124.53 227.828L121.926 218.635L122.319 215.486L119.086 212.623L116.818 216.593L119.42 218.969L120.128 232.618C121.903 235.49 123.101 237.561 123.101 237.561C123.101 237.561 123.755 233.051 124.53 227.828Z" fill="#00A5FF"/>
<path d="M98.593 275.069C98.593 275.069 99.216 277.559 99.216 279.738C99.216 281.917 97.659 288.144 100.772 295.616C103.885 303.088 124.744 304.645 131.593 307.758C138.442 310.871 142.49 313.673 143.735 314.607C144.98 315.541 146.745 328.72 152.141 336.607C157.537 344.494 166.669 360.268 168.745 366.909C168.745 366.909 174.65 368.303 179.952 364.834C182.728 363.018 182.443 361.928 182.443 361.928C182.443 361.928 171.651 338.267 169.16 328.305C166.669 318.343 163.763 306.72 159.197 303.814C154.631 300.908 140.103 290.532 136.782 288.456C133.461 286.38 124.512 279.818 122.76 275.835C121.008 271.852 103.989 265.418 98.593 275.069Z" fill="#94A3C0"/>
<path d="M115.716 264.795C115.716 264.795 116.339 267.285 116.339 269.464C116.339 271.643 114.782 277.87 117.895 285.342C121.008 292.814 141.867 294.371 148.716 297.484C155.565 300.597 159.613 303.399 160.858 304.333C162.103 305.267 163.868 318.446 169.264 326.333C174.66 334.22 183.792 349.993 185.868 356.635C185.868 356.635 191.773 358.029 197.075 354.56C199.851 352.744 199.566 351.654 199.566 351.654C199.566 351.654 188.774 327.993 186.283 318.031C183.792 308.069 180.886 296.446 176.32 293.54C171.754 290.634 157.226 280.257 153.905 278.181C150.584 276.105 141.635 269.544 139.883 265.561C138.131 261.578 121.112 255.144 115.716 264.795Z" fill="#94A3C0"/>
<path d="M197.386 349.475C197.386 349.475 197.179 352.588 200.5 354.871C203.821 357.154 204.443 358.606 207.141 359.644C209.839 360.682 212.33 364.21 211.085 366.701C209.84 369.192 204.028 369.607 200.292 368.569C196.556 367.531 195.933 364.21 192.405 362.965C188.877 361.72 187.632 360.267 186.594 359.229C185.556 358.191 185.971 354.041 185.971 354.041L198.632 349.89" fill="#382747"/>
<path d="M181.198 361.513C181.198 361.513 180.99 364.626 184.311 366.909C187.632 369.192 188.254 370.644 190.952 371.682C193.65 372.72 196.141 376.249 194.896 378.739C193.651 381.23 187.839 381.645 184.103 380.607C180.367 379.569 179.744 376.248 176.216 375.003C172.688 373.758 171.443 372.305 170.405 371.267C169.367 370.229 169.782 366.079 169.782 366.079L182.443 361.928" fill="#382747"/>
<path d="M199.768 343.514L199.589 406.831L188.512 413.268L188.691 349.952L199.768 343.514Z" fill="#C7D8F2"/>
<path d="M188.691 349.951L188.512 413.268L177.363 406.831L177.542 343.514L188.691 349.951Z" fill="#7BAEFF"/>
<path d="M199.768 343.514L188.691 349.951L177.542 343.514L188.619 337.077L199.768 343.514Z" fill="#4DA5DC"/>
<path d="M381.905 300.142C381.889 300.326 381.876 300.51 381.842 300.694C381.814 300.845 381.769 300.995 381.729 301.145C381.683 301.32 381.641 301.495 381.579 301.669C381.528 301.813 381.46 301.955 381.398 302.098C381.318 302.281 381.239 302.464 381.141 302.645C381.07 302.776 380.986 302.905 380.906 303.035C380.779 303.241 380.644 303.446 380.493 303.648C380.347 303.843 380.197 304.038 380.029 304.228C379.989 304.273 379.955 304.319 379.914 304.363C379.688 304.61 379.437 304.852 379.173 305.09C379.004 305.242 378.817 305.388 378.633 305.536C378.471 305.666 378.316 305.797 378.142 305.923C377.943 306.068 377.724 306.206 377.509 306.346C377.288 306.489 377.079 306.636 376.842 306.774L234.421 389.54C233.249 390.221 231.951 390.786 230.57 391.234C229.504 391.58 228.388 391.856 227.243 392.062C226.506 392.195 225.758 392.299 225.002 392.374C224.356 392.438 223.705 392.482 223.053 392.504C222.454 392.524 221.853 392.528 221.253 392.513C220.674 392.499 220.096 392.467 219.522 392.42L219.493 402.571C220.067 402.618 220.645 402.65 221.224 402.664C221.824 402.679 222.425 402.676 223.024 402.655C223.677 402.633 224.327 402.589 224.973 402.525C225.729 402.45 226.477 402.346 227.214 402.213C228.359 402.007 229.475 401.731 230.541 401.385C231.922 400.937 233.22 400.373 234.392 399.692L376.813 316.926C376.885 316.884 376.957 316.841 377.028 316.799C377.188 316.703 377.325 316.598 377.477 316.499C377.693 316.358 377.914 316.22 378.114 316.074C378.287 315.948 378.442 315.818 378.603 315.688C378.788 315.54 378.976 315.393 379.145 315.241C379.179 315.21 379.22 315.182 379.253 315.151C379.479 314.943 379.687 314.729 379.884 314.514C379.925 314.469 379.961 314.423 380.001 314.378C380.118 314.246 380.237 314.114 380.343 313.979C380.389 313.92 380.42 313.859 380.464 313.8C380.615 313.598 380.75 313.393 380.877 313.187C380.93 313.1 381.001 313.016 381.05 312.929C381.075 312.885 381.089 312.84 381.113 312.796C381.21 312.615 381.289 312.432 381.369 312.249C381.415 312.142 381.479 312.038 381.519 311.93C381.533 311.894 381.537 311.856 381.55 311.82C381.612 311.646 381.655 311.471 381.701 311.295C381.732 311.177 381.778 311.06 381.802 310.941C381.808 310.91 381.807 310.877 381.813 310.846C381.847 310.662 381.86 310.477 381.877 310.292C381.888 310.172 381.915 310.052 381.918 309.932C381.919 309.881 381.92 309.829 381.92 309.778L381.949 299.627C381.949 299.799 381.921 299.97 381.905 300.142Z" fill="#ADCDFC"/>
<path d="M217.814 392.23C217.227 392.147 216.644 392.045 216.071 391.926C215.449 391.797 214.837 391.648 214.238 391.477C213.505 391.268 212.792 391.028 212.104 390.757C211.211 390.405 210.362 389.999 209.569 389.541L66.216 306.776C62.751 304.776 61.022 302.15 61.029 299.528L61 309.68C60.993 312.302 62.723 314.928 66.188 316.928L209.54 399.692C210.333 400.15 211.182 400.556 212.075 400.908C212.763 401.179 213.477 401.419 214.21 401.628C214.809 401.799 215.421 401.949 216.043 402.078C216.616 402.197 217.198 402.298 217.785 402.381C218.35 402.461 218.92 402.525 219.493 402.572L219.522 392.42C218.948 392.373 218.379 392.31 217.814 392.23Z" fill="#ADCDFC"/>
<path d="M376.762 292.781C383.647 296.756 383.684 303.202 376.843 307.177L234.422 389.943C227.581 393.918 216.454 393.918 209.569 389.943L66.2159 307.178C59.3309 303.203 59.2939 296.758 66.1349 292.783L208.556 210.017C215.397 206.042 226.524 206.042 233.409 210.017L376.762 292.781Z" fill="#E2EDFF"/>
<path d="M222.69 322.759L261.933 345.565L289.538 329.627L250.295 306.821L222.69 322.759Z" fill="white"/>
<path d="M256.043 317.084L249.869 320.672L242.051 318.368C244.233 315.871 249.503 314.878 253.821 316.151C254.685 316.405 255.357 316.688 256.043 317.084Z" fill="#FF5668"/>
<path d="M257.459 317.549C261.609 319.945 261.63 323.83 257.507 326.226C253.384 328.622 246.679 328.622 242.529 326.226C239.209 324.309 238.43 321.517 240.541 319.102L249.994 321.888L257.459 317.549Z" fill="#B391FF"/>
<path d="M251.782 334.602C251.438 334.801 251.436 335.117 251.778 335.316C252.12 335.515 252.666 335.515 253.01 335.316L270.528 325.202C270.872 325.003 270.874 324.687 270.532 324.488C270.19 324.289 269.644 324.289 269.3 324.488L251.782 334.602Z" fill="#ADCDFC"/>
<path d="M263.885 329.953C263.547 330.148 263.546 330.472 263.881 330.667C264.223 330.866 264.781 330.866 265.119 330.671L272.553 326.378C272.897 326.179 272.893 325.86 272.551 325.661C272.216 325.466 271.663 325.462 271.319 325.661L263.885 329.953Z" fill="#D4D9DF"/>
<path d="M261.578 333.477C261.234 333.676 261.226 333.995 261.568 334.194C261.91 334.393 262.462 334.39 262.806 334.191L274.439 327.475C274.783 327.276 274.785 326.96 274.443 326.761C274.101 326.562 273.555 326.562 273.211 326.761L261.578 333.477Z" fill="#D4D9DF"/>
<path d="M268.895 355.241C269.85 355.792 269.853 356.684 268.906 357.234L240.894 373.498C239.946 374.049 238.408 374.049 237.453 373.498L217.901 362.21C216.948 361.66 216.941 360.768 217.89 360.217L245.902 343.953C246.849 343.403 248.39 343.403 249.343 343.953L268.895 355.241Z" fill="#F2F8FD"/>
<path d="M269.607 356.316C269.605 356.341 269.603 356.367 269.598 356.392C269.594 356.413 269.588 356.434 269.583 356.455C269.576 356.48 269.57 356.504 269.562 356.528C269.555 356.548 269.545 356.567 269.537 356.587C269.526 356.612 269.515 356.638 269.501 356.663C269.491 356.681 269.48 356.698 269.469 356.716C269.451 356.745 269.432 356.774 269.411 356.802C269.399 356.818 269.385 356.835 269.372 356.851C269.341 356.888 269.306 356.925 269.269 356.961C269.255 356.974 269.242 356.988 269.228 357.001C269.205 357.022 269.179 357.043 269.154 357.063C269.131 357.081 269.11 357.099 269.086 357.117C269.058 357.137 269.028 357.156 268.998 357.175C268.967 357.195 268.938 357.215 268.905 357.234L240.893 373.499C240.787 373.56 240.672 373.612 240.553 373.66C240.522 373.672 240.491 373.684 240.459 373.696C240.385 373.723 240.307 373.744 240.23 373.766C240.15 373.788 240.07 373.81 239.987 373.827C239.89 373.847 239.792 373.865 239.692 373.878C239.668 373.881 239.644 373.885 239.619 373.888C239.484 373.903 239.347 373.909 239.21 373.91C239.189 373.91 239.167 373.911 239.146 373.911C239.011 373.91 238.876 373.902 238.742 373.888C238.722 373.886 238.702 373.884 238.682 373.881C238.549 373.865 238.418 373.843 238.291 373.814C238.268 373.809 238.244 373.803 238.221 373.797C238.105 373.768 237.992 373.734 237.883 373.694C237.863 373.687 237.843 373.682 237.824 373.674C237.693 373.623 237.569 373.566 237.453 373.499L217.901 362.21C217.541 362.002 217.315 361.746 217.226 361.478C217.196 361.389 217.182 361.298 217.182 361.207L217.175 362.329C217.175 362.374 217.178 362.42 217.186 362.465C217.238 362.782 217.474 363.09 217.894 363.332L237.446 374.621C237.556 374.685 237.674 374.741 237.798 374.79C237.804 374.793 237.811 374.793 237.817 374.796C237.836 374.803 237.857 374.809 237.876 374.816C237.948 374.842 238.019 374.869 238.094 374.89C238.134 374.901 238.174 374.909 238.214 374.919C238.237 374.925 238.261 374.931 238.284 374.936C238.305 374.941 238.326 374.948 238.348 374.952C238.427 374.968 238.508 374.982 238.589 374.994C238.618 374.998 238.646 375 238.675 375.003C238.695 375.006 238.715 375.008 238.735 375.01C238.765 375.013 238.795 375.017 238.825 375.02C238.904 375.027 238.984 375.031 239.064 375.033C239.089 375.034 239.114 375.033 239.139 375.033C239.161 375.033 239.182 375.032 239.204 375.032C239.24 375.032 239.276 375.033 239.312 375.032C239.402 375.029 239.493 375.023 239.582 375.014C239.592 375.013 239.603 375.011 239.613 375.01C239.637 375.007 239.661 375.003 239.685 375C239.754 374.991 239.823 374.983 239.891 374.971C239.922 374.966 239.95 374.955 239.98 374.949C240.063 374.932 240.143 374.911 240.223 374.888C240.265 374.876 240.311 374.869 240.352 374.856C240.386 374.845 240.419 374.83 240.452 374.818C240.484 374.806 240.516 374.795 240.547 374.782C240.666 374.734 240.781 374.682 240.887 374.621L268.899 358.356C268.909 358.35 268.919 358.345 268.929 358.339C268.952 358.326 268.971 358.311 268.992 358.297C269.021 358.278 269.052 358.259 269.079 358.239C269.103 358.221 269.125 358.203 269.147 358.185C269.173 358.164 269.198 358.144 269.222 358.123C269.227 358.119 269.232 358.114 269.237 358.11C269.247 358.101 269.253 358.092 269.262 358.083C269.299 358.047 269.334 358.01 269.365 357.972C269.372 357.964 269.381 357.956 269.388 357.948C269.394 357.94 269.399 357.932 269.405 357.924C269.426 357.896 269.444 357.867 269.462 357.838C269.469 357.826 269.479 357.815 269.486 357.803C269.489 357.797 269.491 357.79 269.494 357.784C269.507 357.759 269.519 357.734 269.53 357.709C269.537 357.694 269.545 357.679 269.551 357.664C269.553 357.659 269.553 357.654 269.555 357.649C269.564 357.625 269.57 357.601 269.576 357.577C269.58 357.561 269.587 357.544 269.59 357.527C269.591 357.523 269.59 357.519 269.591 357.515C269.596 357.489 269.598 357.463 269.6 357.438C269.602 357.421 269.606 357.405 269.606 357.388C269.606 357.381 269.606 357.374 269.606 357.367L269.613 356.245C269.613 356.269 269.609 356.292 269.607 356.316Z" fill="url(#paint0_linear_4_17482)"/>
<path d="M266.007 355.596C266.312 355.772 266.314 356.059 266.009 356.237L239.421 371.688C239.116 371.865 238.62 371.865 238.315 371.689L220.702 361.521C220.395 361.344 220.394 361.056 220.699 360.879L247.286 345.428C247.591 345.251 248.088 345.251 248.395 345.428L266.007 355.596Z" fill="url(#paint1_linear_4_17482)"/>
<path d="M135.519 262.985L174.762 285.791L202.367 269.853L163.124 247.047L135.519 262.985Z" fill="white"/>
<path d="M168.872 257.31L162.698 260.898L154.88 258.594C157.062 256.097 162.332 255.104 166.65 256.377C167.514 256.631 168.186 256.914 168.872 257.31Z" fill="#B391FF"/>
<path d="M170.288 257.775C174.438 260.171 174.459 264.056 170.336 266.452C166.213 268.848 159.508 268.848 155.358 266.452C152.038 264.535 151.259 261.743 153.37 259.328L162.823 262.114L170.288 257.775Z" fill="#05CCFF"/>
<path d="M164.611 274.828C164.267 275.027 164.265 275.343 164.607 275.542C164.949 275.741 165.495 275.741 165.839 275.542L183.357 265.428C183.701 265.229 183.703 264.913 183.361 264.714C183.019 264.515 182.473 264.515 182.129 264.714L164.611 274.828Z" fill="#ADCDFC"/>
<path d="M176.714 270.179C176.376 270.374 176.375 270.698 176.71 270.893C177.052 271.092 177.61 271.092 177.948 270.897L185.382 266.604C185.726 266.405 185.722 266.086 185.38 265.887C185.045 265.692 184.492 265.688 184.148 265.887L176.714 270.179Z" fill="#D4D9DF"/>
<path d="M174.409 273.703C174.065 273.902 174.056 274.222 174.398 274.421C174.74 274.62 175.292 274.616 175.636 274.417L187.269 267.701C187.613 267.502 187.615 267.186 187.273 266.987C186.931 266.788 186.385 266.788 186.041 266.987L174.409 273.703Z" fill="#05CCFF"/>
<path d="M198.631 333.28L198.624 335.638L193.187 338.798L193.194 336.44L198.631 333.28Z" fill="#540CC7"/>
<path d="M193.194 336.44L193.187 338.797L146.954 312.104L146.961 309.747L193.194 336.44Z" fill="#3F0995"/>
<path d="M198.631 333.28L193.194 336.44L146.961 309.748L152.398 306.588L198.631 333.28Z" fill="#7974F5"/>
<path d="M178.083 333.734L178.077 336.092L172.643 339.25L172.649 336.892L178.083 333.734Z" fill="#2689FD"/>
<path d="M172.649 336.892L172.642 339.25L136.325 318.282L136.332 315.924L172.649 336.892Z" fill="#3548DB"/>
<path d="M178.083 333.734L172.649 336.892L136.331 315.924L141.765 312.766L178.083 333.734Z" fill="#58AFFB"/>
<path d="M147.751 328.54L147.745 330.898L142.311 334.056L142.317 331.698L147.751 328.54Z" fill="#EE2C6A"/>
<path d="M142.318 331.699L142.311 334.056L125.692 324.461L125.699 322.104L142.318 331.699Z" fill="#EE428C"/>
<path d="M147.751 328.54L142.317 331.698L125.699 322.104L131.133 318.946L147.751 328.54Z" fill="#FF3D9D"/>
<path d="M111.073 315.518C110.531 315.831 110.528 316.33 111.067 316.643C111.605 316.956 112.466 316.956 113.008 316.643L140.621 300.7C141.163 300.387 141.167 299.888 140.628 299.575C140.089 299.262 139.228 299.262 138.686 299.575L111.073 315.518Z" fill="#ADCDFC"/>
<path d="M130.15 308.191C129.618 308.498 129.615 309.009 130.144 309.316C130.683 309.629 131.563 309.628 132.095 309.321L143.813 302.556C144.355 302.243 144.349 301.738 143.81 301.425C143.281 301.118 142.41 301.112 141.868 301.425L130.15 308.191Z" fill="#ADCDFC"/>
<path d="M126.516 313.744C125.974 314.057 125.961 314.562 126.5 314.875C127.039 315.188 127.91 315.182 128.452 314.869L146.787 304.283C147.329 303.97 147.332 303.471 146.793 303.158C146.254 302.845 145.394 302.845 144.852 303.158L126.516 313.744Z" fill="#ADCDFC"/>
<path d="M124.86 288.204L120.471 290.754C116.488 288.58 110.229 288.617 106.354 290.869C106.274 290.915 106.199 290.964 106.122 291.012L101.704 288.461C101.782 288.413 101.859 288.366 101.939 288.32C108.237 284.66 118.439 284.622 124.86 288.204Z" fill="#7CCCFF"/>
<path d="M125.536 288.603C130.749 291.867 131.288 296.73 127.139 300.309L122.585 297.68C124.412 295.588 123.929 292.991 121.142 291.156L125.536 288.603Z" fill="#7CCCFF"/>
<path d="M126.57 300.769C126.136 301.098 125.661 301.416 125.142 301.717C118.935 305.324 108.939 305.414 102.504 301.988L106.897 299.435C110.888 301.455 116.945 301.367 120.728 299.168C121.253 298.863 121.705 298.532 122.089 298.183L126.57 300.769Z" fill="#3EABFF"/>
<path d="M105.497 291.438C102.499 293.696 102.737 296.932 106.2 299.047L101.812 301.597C95.912 298.07 95.654 292.555 101.058 288.875L105.497 291.438Z" fill="#3EABFF"/>
<path d="M267.59 441.989C267.59 441.989 265.1 443.702 267.435 447.749C269.77 451.796 271.794 449.306 277.086 453.353C282.378 457.4 284.246 458.178 287.048 457.867C289.85 457.556 291.562 456.155 292.029 454.598C292.496 453.041 291.095 450.395 291.095 450.395L267.59 441.989Z" fill="#94A3C0"/>
<path d="M290.005 442.145C290.005 442.145 291.094 447.438 291.717 451.485C291.873 453.353 289.382 455.896 285.802 455.74C282.222 455.584 280.198 454.495 278.953 452.938C277.708 451.381 269.924 448.371 268.523 447.126C267.122 445.881 266.811 442.145 267.434 441.211C268.057 440.277 270.391 438.72 272.882 439.81C275.373 440.9 277.396 442.924 282.377 443.235C287.358 443.546 290.005 442.145 290.005 442.145Z" fill="#382747"/>
<path d="M292.288 428.499C292.288 428.499 289.797 430.211 292.132 434.258C294.467 438.305 296.491 435.815 301.783 439.862C307.075 443.909 308.944 444.687 311.746 444.376C314.548 444.065 316.26 442.664 316.727 441.107C317.194 439.55 315.793 436.904 315.793 436.904L292.288 428.499Z" fill="#94A3C0"/>
<path d="M314.704 428.654C314.704 428.654 315.793 433.947 316.416 437.994C316.572 439.862 314.081 442.405 310.501 442.249C306.921 442.093 304.897 441.004 303.652 439.447C302.407 437.89 294.623 434.88 293.222 433.635C291.821 432.39 291.51 428.654 292.133 427.72C292.756 426.786 295.09 425.229 297.581 426.319C300.072 427.409 302.095 429.433 307.076 429.744C312.057 430.055 314.704 428.654 314.704 428.654Z" fill="#382747"/>
<path d="M295.349 385.589C296.594 395.551 301.576 421.702 302.406 430.834C302.406 430.834 304.481 434.155 310.708 433.325L313.663 432.093C314.854 431.597 315.568 430.374 315.409 429.094C314.783 424.058 313.374 411.378 314.028 403.853C314.858 394.306 312.368 388.494 312.368 388.494C312.576 385.381 312.991 374.589 306.764 371.683C306.764 371.683 291.509 368.881 295.349 385.589Z" fill="#600000"/>
<path d="M308.01 376.248L306.349 379.569C306.349 379.569 280.821 380.814 273.972 388.286C273.972 388.286 269.406 389.117 270.651 399.079C271.896 409.041 276.878 435.193 277.708 444.325C277.708 444.325 279.783 447.645 286.01 446.815L288.965 445.584C290.156 445.088 290.87 443.865 290.711 442.585C290.085 437.549 288.676 424.868 289.33 417.343C290.16 407.796 287.67 401.984 287.67 401.984C287.67 401.984 298.877 404.06 310.915 409.041C322.953 414.022 333.331 408.211 337.897 405.72C342.463 403.229 344.123 401.569 344.123 401.569C344.123 401.569 349.935 401.569 355.331 397.003C360.727 392.437 361.557 380.4 355.746 373.343C349.935 366.286 308.01 376.248 308.01 376.248Z" fill="#600000"/>
<path d="M317.142 313.154C317.142 313.154 321.267 311.625 320.996 306.115C319.744 300.688 318.23 300.323 318.23 300.323C318.23 300.323 324.002 294.991 330.962 296.671C330.962 296.671 335.261 305.395 340.124 309.131C340.124 309.131 336.236 319.381 317.142 313.154Z" fill="#CE7C56"/>
<path d="M326.17 316.267C326.17 316.267 341.425 303.502 344.538 303.191C348.274 302.88 352.944 304.126 354.189 309.418C355.434 314.71 352.633 318.757 349.831 320.314C347.029 321.871 322.435 333.701 318.076 333.701C313.717 333.701 310.915 329.965 313.717 325.295C316.519 320.625 326.17 316.267 326.17 316.267Z" fill="#E2A029"/>
<path d="M330.841 307.757C330.841 307.757 314.652 313.153 310.086 320.625C305.52 328.097 306.35 336.399 309.671 348.022C312.992 359.645 306.35 370.021 308.01 376.248C309.67 382.474 321.293 388.286 338.312 385.38C355.331 382.474 356.577 375.833 357.822 372.097C359.067 368.361 354.501 350.513 358.652 335.984C362.803 321.456 354.501 311.493 351.18 309.002C347.859 306.511 341.219 303.191 330.841 307.757Z" fill="#FFBE3D"/>
<path d="M351.18 309.002C347.859 306.511 341.218 303.191 330.84 307.757C330.84 307.757 314.651 313.153 310.085 320.625C308.979 322.436 308.195 324.297 307.681 326.24C314.236 317.719 323.539 313.978 329.595 328.512C335.247 342.076 320.868 381.943 308.304 369.409C307.776 372.024 307.499 374.334 308.01 376.248C309.67 382.475 321.293 388.286 338.312 385.38C355.331 382.474 356.577 375.833 357.822 372.097C359.067 368.361 354.501 350.512 358.652 335.984C362.803 321.456 354.501 311.493 351.18 309.002Z" fill="#E2A029"/>
<path d="M315.378 314.814C315.378 314.814 319.737 317.616 330.633 316.059C341.529 314.502 342.152 306.72 341.218 306.097C340.284 305.474 338.416 302.984 338.416 302.984C338.416 302.984 326.897 308.276 322.85 309.833C318.803 311.39 316.623 312.323 316.623 312.323L315.378 314.814Z" fill="white"/>
<path d="M362.468 451.59C361.903 457.871 355.992 462.138 350.658 464.436C344.85 466.939 338.463 467.948 332.161 467.867C325.729 467.784 319.162 466.555 313.362 463.701C308.301 461.211 302.929 456.693 302.946 450.549C302.934 455.023 303.247 458.72 306.471 462.213C310.622 466.71 316.871 469.131 322.749 470.345C334.218 472.713 349.833 471.569 358.545 462.74C362.05 459.188 362.529 455.443 362.542 450.719C362.53 451.011 362.505 451.301 362.468 451.59Z" fill="#ADCDFC"/>
<path d="M353.739 438.422C365.413 445.162 365.488 456.092 353.89 462.832C342.292 469.572 323.409 469.572 311.735 462.832C300.061 456.092 300.013 445.162 311.611 438.422C323.209 431.682 342.065 431.682 353.739 438.422Z" fill="#E2EDFF"/>
<path d="M338.053 424.797L337.98 450.845L333.423 453.493L333.496 427.445L338.053 424.797Z" fill="#C7D8F2"/>
<path d="M333.496 427.445L333.422 453.493L328.836 450.845L328.91 424.797L333.496 427.445Z" fill="#7BAEFF"/>
<path d="M338.053 424.797L333.496 427.445L328.909 424.797L333.466 422.149L338.053 424.797Z" fill="#4DA5DC"/>
<path d="M391.177 335.862C391.045 332.251 387.463 329.798 384.053 330.994C369.163 336.217 335.034 348.586 332.841 352.971C330.751 357.15 324 380.494 320.676 392.188C319.716 395.567 315.822 397.115 312.796 395.33L292.168 383.166C288.244 380.852 283.404 384.174 284.153 388.667L287.465 408.538C287.729 410.123 288.691 411.506 290.084 412.307L312.155 424.986C324.489 432.072 339.553 432.508 352.276 426.146L369.291 417.638C384.171 410.198 393.332 394.751 392.724 378.126L391.177 335.862Z" fill="#3278CC"/>
<path d="M332.841 352.971C330.751 357.15 324 380.494 320.676 392.188C319.716 395.567 315.821 397.115 312.795 395.33L292.168 383.165C288.244 380.851 283.404 384.174 284.153 388.667L287.465 408.538C287.542 409.001 287.695 409.439 287.885 409.858C288.148 410.272 288.413 410.685 288.682 411.096C289.08 411.567 289.536 411.992 290.084 412.307L312.154 424.986C316.83 427.672 321.899 429.397 327.083 430.164C344.985 416.272 342.729 358.288 336.236 353.418C335.274 352.697 334.428 352.248 333.68 352.006C333.275 352.359 332.985 352.683 332.841 352.971Z" fill="#3AAEEF"/>
<path d="M235.604 283.38L268.081 315.089L298.745 306.384L266.268 274.675L235.604 283.38Z" fill="white"/>
<path d="M269.744 284.607L266.73 285.825C264.402 284.083 260.429 283.537 257.767 284.613C257.712 284.635 257.661 284.658 257.607 284.681L255.038 282.662C255.091 282.639 255.145 282.616 255.199 282.593C259.526 280.847 265.999 281.751 269.744 284.607Z" fill="#E2EDFF"/>
<path d="M270.136 284.923C273.145 287.468 273.044 290.6 270.087 292.492L267.439 290.41C268.787 289.25 268.718 287.559 267.118 286.141L270.136 284.923Z" fill="#E2EDFF"/>
<path d="M269.685 292.732C269.38 292.901 269.049 293.059 268.693 293.203C264.428 294.925 258.082 294.071 254.314 291.312L257.331 290.093C259.678 291.738 263.527 292.235 266.127 291.184C266.488 291.038 266.805 290.869 267.08 290.683L269.685 292.732Z" fill="#3EABFF"/>
<path d="M257.172 284.895C255.065 286.054 254.921 288.128 256.925 289.785L253.91 291.002C250.49 288.229 250.829 284.706 254.591 282.865L257.172 284.895Z" fill="#3EABFF"/>
<path d="M293.11 335.862C293.11 335.862 308.077 322.761 311.183 322.38C314.911 321.986 319.607 323.127 320.97 328.391C322.332 333.654 319.622 337.763 316.855 339.381C314.088 341 289.763 353.374 285.406 353.471C281.048 353.568 278.163 349.895 280.861 345.164C283.558 340.433 293.11 335.862 293.11 335.862Z" fill="#FFBE3D"/>
<path d="M271.185 316.108C271.185 316.108 270.372 314.57 270.192 313.484C270.012 312.398 270.604 310.984 269.926 308.507C269.247 306.031 268.11 303.877 267.605 302.175C266.326 300.647 265.298 303.472 266.284 305.786C267.27 308.099 266.989 309.506 266.059 309.683C265.128 309.859 261.186 307.612 260.069 306.391C258.952 305.171 252.593 299.24 251.988 300.031C251.382 300.823 251.399 301.602 253.63 303.888C255.86 306.174 256.662 307.245 256.832 307.864C257.002 308.484 256.861 309.109 257.68 310.959C258.499 312.81 257.904 314.069 259.343 315.75C260.782 317.43 263.435 317.682 264.704 318.744C265.973 319.806 265.973 319.806 265.973 319.806L271.185 316.108Z" fill="#FFAA83"/>
<path d="M285.405 353.471C285.405 353.471 278.897 354.862 275.208 347.679C271.519 340.495 265.067 321.124 264.196 319.275C264.196 319.275 266.169 314.662 271.361 314.755C271.361 314.755 277.425 326.038 280.861 331.152C284.297 336.266 296.461 351.149 285.405 353.471Z" fill="#FFBE3D"/>
<path d="M306.337 284.051C306.337 284.051 306.885 295.284 313.73 301.914C320.576 308.544 325.867 303.446 329.325 301.103C332.783 298.76 333.918 295.47 333.965 286.356C334.013 277.243 332.868 268.601 326.018 266.682C319.169 264.763 311.989 265.088 308.877 272.409C305.765 279.73 306.337 284.051 306.337 284.051Z" fill="#FFAA83"/>
<path d="M308.899 270.207C308.899 270.207 304.185 274.915 305.27 280.738C306.356 286.561 304.627 287.733 305.653 290.737C306.68 293.741 311.741 294.012 312.622 298.293C313.503 302.573 320.189 303.256 323.748 304.04C327.305 304.825 332.329 300.076 333.586 297.712C334.843 295.347 333.798 289.833 334.995 284.649C336.192 279.466 334.449 273.417 332.333 269.3C330.217 265.183 327.008 264.667 327.008 264.667C327.008 264.667 325.014 261.477 321.229 261.35C317.444 261.223 306.106 263.355 308.899 270.207Z" fill="#4D2C63"/>
<path d="M258.268 94.9702C258.193 94.9272 258.118 94.8841 258.043 94.8442C257.946 94.7912 257.849 94.7412 257.753 94.6942C257.657 94.6472 257.562 94.6012 257.467 94.5592C257.372 94.5171 257.278 94.4772 257.184 94.4392C257.088 94.4012 256.992 94.3641 256.898 94.3312C256.88 94.3242 256.862 94.3202 256.844 94.3142C256.837 94.3122 256.83 94.3102 256.823 94.3072C256.754 94.2842 256.684 94.2601 256.615 94.2391C256.517 94.2092 256.419 94.1822 256.323 94.1582C256.225 94.1341 256.13 94.1131 256.034 94.0942C255.93 94.0742 255.827 94.0572 255.725 94.0432C255.655 94.0342 255.586 94.0282 255.517 94.0222C255.507 94.0212 255.496 94.0202 255.486 94.0192C255.461 94.0171 255.435 94.0132 255.41 94.0112C255.298 94.0031 255.188 93.9992 255.079 94.0002C254.955 94.0012 254.833 94.0062 254.713 94.0171C254.574 94.0301 254.439 94.0502 254.306 94.0762C254.303 94.0772 254.299 94.0782 254.296 94.0791C254.292 94.0802 254.288 94.0812 254.284 94.0822C254.122 94.1152 253.964 94.1582 253.812 94.2122C253.613 94.2832 253.422 94.3711 253.241 94.4762L248.559 97.1982C248.877 97.0132 249.226 96.8822 249.6 96.8042C249.605 96.8032 249.609 96.8011 249.614 96.8002C249.986 96.7241 250.385 96.7041 250.803 96.7402C250.814 96.7412 250.824 96.7422 250.835 96.7432C251.252 96.7811 251.688 96.8752 252.14 97.0282C252.147 97.0301 252.154 97.0332 252.161 97.0352C252.621 97.1932 253.097 97.4102 253.585 97.6912L384.385 173.208L389.067 170.487L258.268 94.9702Z" fill="url(#paint2_linear_4_17482)"/>
<path d="M396.103 182.362C396.099 182.249 396.094 182.135 396.087 182.02C396.08 181.906 396.071 181.791 396.06 181.676C396.049 181.561 396.036 181.446 396.021 181.33C396.006 181.212 395.99 181.093 395.971 180.975C395.97 180.972 395.97 180.968 395.969 180.965C395.969 180.962 395.968 180.961 395.968 180.958C395.95 180.845 395.93 180.731 395.909 180.618C395.886 180.496 395.861 180.372 395.834 180.249C395.807 180.126 395.779 180.003 395.748 179.879C395.717 179.754 395.684 179.629 395.649 179.504C395.622 179.407 395.593 179.311 395.564 179.214C395.562 179.206 395.561 179.199 395.558 179.191C395.552 179.171 395.546 179.151 395.54 179.131C395.503 179.009 395.464 178.888 395.423 178.766C395.383 178.646 395.342 178.526 395.298 178.406C395.256 178.291 395.213 178.176 395.168 178.061C395.123 177.946 395.078 177.832 395.03 177.718C394.994 177.63 394.956 177.543 394.918 177.456C394.915 177.451 394.913 177.445 394.911 177.44C394.902 177.42 394.894 177.4 394.885 177.38C394.834 177.265 394.782 177.152 394.729 177.038C394.671 176.914 394.611 176.79 394.55 176.667C394.479 176.525 394.407 176.385 394.332 176.245C394.251 176.094 394.165 175.945 394.08 175.797C394.065 175.771 394.051 175.744 394.036 175.718C394.018 175.687 394.002 175.656 393.984 175.625C393.817 175.342 393.642 175.063 393.46 174.79C393.316 174.574 393.166 174.361 393.013 174.153C392.91 174.014 392.806 173.877 392.699 173.742C392.61 173.628 392.519 173.516 392.427 173.405C392.337 173.297 392.246 173.191 392.154 173.086C392.064 172.983 391.973 172.882 391.88 172.782C391.862 172.762 391.842 172.743 391.824 172.723C391.817 172.716 391.811 172.709 391.804 172.702C391.733 172.627 391.663 172.552 391.591 172.479C391.493 172.379 391.394 172.281 391.294 172.185C391.192 172.087 391.088 171.99 390.983 171.896C390.879 171.802 390.775 171.711 390.669 171.622C390.616 171.577 390.562 171.535 390.509 171.492C390.497 171.482 390.485 171.472 390.473 171.462C390.433 171.43 390.394 171.397 390.354 171.365C390.251 171.284 390.148 171.206 390.044 171.129C389.942 171.054 389.84 170.981 389.737 170.91C389.637 170.842 389.537 170.776 389.436 170.712C389.337 170.649 389.237 170.587 389.137 170.528C389.114 170.514 389.09 170.502 389.067 170.488L384.385 173.209C384.867 173.487 385.337 173.816 385.791 174.184C385.803 174.193 385.814 174.203 385.826 174.213C386.275 174.579 386.708 174.984 387.121 175.423C387.128 175.43 387.134 175.437 387.141 175.444C387.974 176.332 388.723 177.352 389.354 178.439C389.369 178.465 389.383 178.492 389.398 178.518C389.704 179.051 389.983 179.6 390.227 180.159C390.23 180.166 390.233 180.172 390.236 180.179C390.485 180.751 390.699 181.33 390.875 181.912C390.877 181.92 390.88 181.927 390.882 181.935C391.057 182.518 391.193 183.102 391.285 183.679C391.285 183.679 391.285 183.684 391.286 183.686C391.378 184.268 391.427 184.843 391.425 185.403L391.171 274.773C391.17 275.322 391.119 275.828 391.027 276.294C391.024 276.308 391.021 276.324 391.018 276.338C390.925 276.795 390.792 277.21 390.62 277.581C390.617 277.589 390.614 277.597 390.61 277.605C390.464 277.917 390.277 278.177 390.08 278.425C390.015 278.507 389.954 278.594 389.884 278.668C389.651 278.917 389.398 279.138 389.112 279.304L393.794 276.583C394.08 276.417 394.332 276.196 394.566 275.947C394.636 275.872 394.697 275.786 394.762 275.704C394.846 275.598 394.942 275.507 395.017 275.389C395.113 275.238 395.202 275.077 395.283 274.906C395.286 274.899 395.29 274.89 395.293 274.883C395.296 274.876 395.299 274.869 395.302 274.862C395.355 274.747 395.407 274.628 395.453 274.504C395.498 274.384 395.538 274.26 395.576 274.132C395.61 274.015 395.642 273.895 395.67 273.772C395.681 273.721 395.69 273.668 395.701 273.616C395.704 273.602 395.707 273.587 395.71 273.573C395.72 273.524 395.731 273.476 395.74 273.426C395.759 273.315 395.775 273.203 395.79 273.088C395.804 272.977 395.816 272.863 395.825 272.748C395.834 272.639 395.841 272.527 395.846 272.414C395.851 272.302 395.853 272.188 395.854 272.072C395.854 272.065 395.854 272.059 395.854 272.052L396.107 182.681C396.107 182.575 396.106 182.469 396.103 182.362Z" fill="url(#paint3_linear_4_17482)"/>
<path d="M384.385 173.209C388.287 175.462 391.437 180.918 391.424 185.402L391.171 274.773C391.158 279.257 387.988 281.064 384.085 278.811L253.285 203.293C249.382 201.04 246.233 195.584 246.246 191.1L246.499 101.729C246.512 97.2452 249.682 95.4382 253.585 97.6912L384.385 173.209Z" fill="#343996"/>
<path d="M256.399 243.533C268.073 250.273 268.148 261.203 256.55 267.943C244.952 274.683 226.069 274.683 214.395 267.943C202.721 261.203 202.673 250.273 214.271 243.533C225.869 236.793 244.725 236.793 256.399 243.533Z" fill="#ADCDFC"/>
<path d="M256.674 236.312L256.662 240.604L249.242 244.916L249.254 240.624L256.674 236.312Z" fill="#CC096A"/>
<path d="M226.832 243.65C226.883 243.63 226.933 243.608 226.984 243.588C227.399 243.43 227.825 243.288 228.256 243.152C228.555 243.058 228.861 242.975 229.167 242.892C229.4 242.829 229.63 242.76 229.866 242.703C230.187 242.625 230.515 242.561 230.842 242.495C231.082 242.447 231.318 242.391 231.56 242.349C231.659 242.332 231.76 242.317 231.859 242.301C232.266 242.234 232.675 242.176 233.088 242.127C233.208 242.113 233.326 242.098 233.446 242.085C233.923 242.034 234.403 241.993 234.885 241.964C234.974 241.959 235.063 241.955 235.152 241.951C235.476 241.935 235.801 241.93 236.125 241.924C236.449 241.918 236.773 241.915 237.097 241.919C237.368 241.923 237.638 241.931 237.908 241.942C238.208 241.954 238.508 241.969 238.807 241.99C239.081 242.009 239.354 242.032 239.626 242.058C239.922 242.087 240.217 242.12 240.511 242.157C240.777 242.191 241.041 242.228 241.304 242.269C241.619 242.318 241.932 242.374 242.243 242.433C242.57 242.495 242.896 242.557 243.217 242.63C243.294 242.648 243.371 242.664 243.448 242.682C243.9 242.79 244.344 242.91 244.783 243.04C244.909 243.077 245.033 243.118 245.157 243.157C245.522 243.272 245.881 243.394 246.234 243.524C246.337 243.562 246.441 243.598 246.543 243.637C246.864 243.761 247.174 243.899 247.483 244.036C247.635 244.104 247.793 244.165 247.942 244.236C248.389 244.448 248.824 244.674 249.242 244.915L249.254 239.91C248.836 239.669 248.401 239.443 247.954 239.231C247.806 239.161 247.649 239.1 247.498 239.033C247.233 238.915 246.971 238.792 246.697 238.684C246.65 238.666 246.602 238.65 246.555 238.632C246.454 238.593 246.35 238.558 246.247 238.52C245.894 238.389 245.534 238.266 245.169 238.151C245.045 238.112 244.922 238.072 244.796 238.035C244.712 238.01 244.63 237.982 244.545 237.958C244.188 237.856 243.825 237.764 243.46 237.677C243.383 237.659 243.306 237.643 243.229 237.625C243.052 237.585 242.875 237.541 242.696 237.504C242.551 237.474 242.401 237.456 242.255 237.428C241.944 237.369 241.632 237.313 241.316 237.264C241.19 237.244 241.066 237.217 240.939 237.199C240.802 237.179 240.661 237.17 240.523 237.152C240.229 237.115 239.934 237.082 239.638 237.053C239.497 237.039 239.358 237.018 239.216 237.006C239.084 236.995 238.951 236.994 238.819 236.985C238.52 236.964 238.221 236.949 237.921 236.937C237.771 236.931 237.621 236.917 237.47 236.913C237.35 236.91 237.229 236.916 237.109 236.914C236.785 236.91 236.461 236.913 236.137 236.919C235.976 236.922 235.815 236.916 235.654 236.921C235.491 236.927 235.328 236.938 235.165 236.946C235.076 236.951 234.986 236.954 234.897 236.959C234.493 236.983 234.089 237.012 233.688 237.052C233.611 237.06 233.535 237.072 233.458 237.08C233.338 237.093 233.22 237.108 233.1 237.122C232.688 237.171 232.278 237.229 231.872 237.296C231.772 237.312 231.672 237.327 231.572 237.344C231.524 237.352 231.476 237.358 231.428 237.367C231.235 237.402 231.048 237.45 230.857 237.489C230.528 237.555 230.199 237.621 229.877 237.699C229.641 237.756 229.413 237.823 229.181 237.886C228.874 237.969 228.568 238.053 228.268 238.147C228.204 238.167 228.136 238.181 228.072 238.202C227.707 238.32 227.349 238.448 226.996 238.583C226.945 238.603 226.895 238.625 226.844 238.645C226.457 238.796 226.08 238.958 225.71 239.129C225.601 239.179 225.492 239.23 225.384 239.282C224.974 239.48 224.572 239.687 224.188 239.91C224.115 239.952 224.043 239.995 223.972 240.038C223.905 240.078 223.844 240.12 223.778 240.161C223.669 240.229 223.561 240.296 223.456 240.365C223.36 240.428 223.267 240.492 223.174 240.556C223.072 240.626 222.972 240.696 222.874 240.767C222.784 240.832 222.698 240.898 222.611 240.964C222.517 241.036 222.424 241.109 222.333 241.182C222.25 241.249 222.169 241.317 222.089 241.385C222.002 241.459 221.916 241.533 221.833 241.608C221.799 241.639 221.762 241.669 221.728 241.7C221.697 241.729 221.67 241.759 221.639 241.788C221.499 241.92 221.366 242.053 221.238 242.187C221.195 242.232 221.15 242.277 221.108 242.323C220.945 242.5 220.791 242.678 220.648 242.859C220.642 242.867 220.635 242.874 220.629 242.882C220.596 242.924 220.568 242.966 220.536 243.008C220.45 243.122 220.365 243.236 220.286 243.351C220.242 243.414 220.203 243.478 220.162 243.542C220.095 243.646 220.029 243.75 219.968 243.855C219.951 243.884 219.931 243.912 219.915 243.941C219.891 243.984 219.872 244.027 219.849 244.07C219.801 244.159 219.755 244.247 219.711 244.336C219.675 244.41 219.64 244.485 219.607 244.559C219.567 244.649 219.53 244.739 219.494 244.829C219.478 244.869 219.458 244.908 219.443 244.948C219.429 244.984 219.42 245.021 219.407 245.057C219.377 245.142 219.349 245.228 219.322 245.314C219.298 245.392 219.275 245.47 219.254 245.548C219.231 245.634 219.21 245.721 219.191 245.807C219.181 245.854 219.166 245.899 219.157 245.946C219.151 245.977 219.148 246.01 219.142 246.041C219.126 246.129 219.112 246.217 219.1 246.306C219.089 246.384 219.079 246.461 219.071 246.539C219.062 246.628 219.057 246.718 219.052 246.807C219.049 246.859 219.041 246.911 219.04 246.963C219.039 247.015 219.038 247.781 219.038 247.833L219.026 252.124C219.026 252.02 219.034 251.916 219.04 251.812C219.045 251.723 219.05 251.633 219.059 251.544C219.067 251.466 219.077 251.389 219.088 251.311C219.1 251.223 219.114 251.134 219.13 251.046C219.144 250.967 219.161 250.889 219.179 250.811C219.198 250.725 219.219 250.639 219.242 250.553C219.263 250.475 219.286 250.397 219.31 250.319C219.337 250.234 219.365 250.148 219.395 250.063C219.422 249.986 219.452 249.909 219.482 249.833C219.518 249.743 219.555 249.654 219.595 249.565C219.628 249.49 219.663 249.415 219.699 249.341C219.743 249.252 219.789 249.164 219.837 249.075C219.876 249.003 219.914 248.931 219.956 248.86C220.017 248.755 220.083 248.65 220.15 248.546C220.191 248.483 220.231 248.419 220.274 248.356C220.353 248.241 220.438 248.127 220.524 248.013C220.562 247.963 220.597 247.913 220.636 247.864C220.779 247.683 220.934 247.505 221.096 247.328C221.138 247.283 221.182 247.238 221.225 247.193C221.353 247.058 221.487 246.925 221.627 246.793C221.691 246.733 221.755 246.672 221.821 246.613C221.904 246.538 221.989 246.465 222.076 246.391C222.156 246.323 222.237 246.254 222.321 246.186C222.411 246.113 222.504 246.041 222.598 245.969C222.685 245.903 222.771 245.837 222.861 245.772C222.959 245.701 223.06 245.631 223.161 245.561C223.254 245.497 223.348 245.433 223.444 245.37C223.549 245.301 223.657 245.234 223.766 245.166C223.901 245.082 224.035 244.997 224.176 244.915C224.56 244.692 224.962 244.485 225.372 244.287C225.479 244.235 225.588 244.184 225.697 244.134C226.067 243.963 226.445 243.801 226.832 243.65Z" fill="#CC096A"/>
<path d="M224.27 255.143L224.258 259.435L216.838 263.747L216.85 259.455L224.27 255.143Z" fill="#CC096A"/>
<path d="M216.85 259.455L216.838 263.746C211.267 260.53 208.486 256.309 208.498 252.095L208.51 247.804C208.498 252.018 211.279 256.239 216.85 259.455Z" fill="#CC096A"/>
<path d="M256.673 236.312L249.253 240.624C242.309 236.615 231.087 236.615 224.188 240.624C217.289 244.633 217.325 251.134 224.269 255.143L216.85 259.455C205.779 253.063 205.723 242.702 216.719 236.312C227.715 229.922 245.602 229.92 256.673 236.312Z" fill="#FF5668"/>
<path d="M249.254 241.939L249.241 244.916C252.733 246.932 254.478 249.579 254.47 252.223L254.483 247.932C254.49 245.288 252.746 243.955 249.254 241.939Z" fill="#3278CC"/>
<path d="M256.58 260.891L256.568 263.869L249.1 259.557L249.112 256.579L256.58 260.891Z" fill="#3278CC"/>
<path d="M264.989 248.459C264.981 248.602 264.972 248.744 264.958 248.886C264.946 249.01 264.929 249.133 264.912 249.256C264.892 249.397 264.871 249.539 264.845 249.68C264.822 249.804 264.795 249.929 264.767 250.053C264.736 250.191 264.704 250.329 264.667 250.466C264.634 250.59 264.596 250.715 264.558 250.839C264.516 250.976 264.47 251.112 264.422 251.248C264.379 251.37 264.332 251.492 264.284 251.613C264.227 251.756 264.168 251.899 264.104 252.041C264.051 252.16 263.995 252.279 263.937 252.398C263.868 252.54 263.794 252.681 263.718 252.822C263.656 252.936 263.594 253.05 263.528 253.164C263.43 253.332 263.325 253.499 263.218 253.666C263.153 253.767 263.09 253.868 263.021 253.968C262.895 254.152 262.76 254.333 262.622 254.515C262.562 254.594 262.506 254.674 262.444 254.752C262.215 255.04 261.97 255.325 261.711 255.607C261.644 255.679 261.573 255.751 261.504 255.823C261.3 256.037 261.087 256.25 260.864 256.46C260.763 256.556 260.661 256.651 260.556 256.746C260.423 256.866 260.286 256.984 260.147 257.102C260.02 257.211 259.892 257.319 259.759 257.426C259.615 257.543 259.466 257.658 259.316 257.773C259.178 257.878 259.039 257.983 258.896 258.087C258.74 258.2 258.58 258.312 258.418 258.423C258.27 258.525 258.12 258.627 257.967 258.728C257.8 258.838 257.627 258.945 257.454 259.053C257.238 259.187 257.025 259.322 256.8 259.453C256.727 259.496 256.653 259.534 256.58 259.577L256.567 263.869C256.641 263.826 256.715 263.787 256.788 263.744C256.904 263.676 257.019 263.609 257.133 263.541C257.239 263.477 257.337 263.41 257.441 263.345C257.615 263.237 257.788 263.129 257.956 263.019C258.109 262.919 258.257 262.817 258.405 262.715C258.567 262.603 258.728 262.492 258.884 262.378C259.027 262.274 259.165 262.169 259.303 262.064C259.453 261.949 259.602 261.834 259.746 261.717C259.879 261.61 260.007 261.502 260.135 261.393C260.274 261.275 260.41 261.157 260.543 261.037C260.597 260.988 260.657 260.94 260.711 260.891C260.761 260.845 260.803 260.797 260.852 260.751C261.074 260.541 261.288 260.328 261.492 260.114C261.561 260.042 261.632 259.971 261.699 259.898C261.958 259.616 262.203 259.331 262.432 259.043C262.442 259.031 262.453 259.019 262.463 259.007C262.515 258.941 262.559 258.873 262.61 258.806C262.748 258.625 262.883 258.443 263.009 258.259C263.078 258.159 263.141 258.057 263.206 257.956C263.313 257.79 263.418 257.623 263.516 257.455C263.543 257.409 263.574 257.365 263.6 257.319C263.638 257.251 263.67 257.181 263.707 257.113C263.783 256.972 263.856 256.831 263.925 256.69C263.983 256.571 264.039 256.451 264.092 256.331C264.156 256.189 264.215 256.047 264.272 255.904C264.297 255.84 264.329 255.776 264.353 255.712C264.375 255.655 264.39 255.597 264.41 255.539C264.458 255.403 264.503 255.267 264.545 255.131C264.583 255.007 264.622 254.882 264.655 254.757C264.692 254.62 264.724 254.482 264.755 254.345C264.772 254.271 264.794 254.196 264.809 254.122C264.819 254.072 264.824 254.021 264.833 253.971C264.859 253.83 264.88 253.689 264.9 253.548C264.917 253.424 264.934 253.301 264.946 253.177C264.96 253.035 264.969 252.893 264.977 252.751C264.982 252.668 264.993 252.584 264.995 252.501C264.997 252.418 264.999 252.336 264.999 252.253L265.011 247.961C265.011 248.127 264.998 248.293 264.989 248.459Z" fill="#3278CC"/>
<path d="M256.673 237.626C267.741 244.016 267.796 254.377 256.8 260.767C256.727 260.81 256.654 260.849 256.58 260.892L249.111 256.58C249.184 256.537 249.259 256.499 249.332 256.456C256.231 252.447 256.194 245.946 249.253 241.939L256.673 237.626Z" fill="#58AFFB"/>
<path d="M252.385 265.826C252.694 265.708 252.999 265.584 253.301 265.458C253.482 265.382 253.663 265.306 253.841 265.228C254.161 265.087 254.476 264.94 254.788 264.79C254.937 264.719 255.088 264.651 255.235 264.577C255.688 264.35 256.134 264.115 256.568 263.868L256.58 262.911C256.147 263.158 255.701 263.392 255.248 263.619C255.101 263.693 254.949 263.762 254.799 263.834C254.488 263.984 254.174 264.13 253.854 264.271C253.676 264.35 253.494 264.424 253.313 264.5C253.011 264.626 252.706 264.751 252.397 264.869C252.208 264.942 252.017 265.012 251.826 265.082C251.51 265.197 251.19 265.307 250.868 265.414C250.665 265.481 250.464 265.551 250.259 265.615C250.105 265.663 249.949 265.709 249.793 265.756C249.509 265.841 249.223 265.924 248.935 266.003C248.775 266.047 248.615 266.09 248.454 266.132C248.15 266.211 247.844 266.287 247.536 266.36C247.394 266.394 247.253 266.429 247.11 266.461C246.661 266.562 246.198 266.659 245.742 266.746V267.703C246.198 267.616 246.65 267.519 247.099 267.418C247.241 267.386 247.381 267.35 247.522 267.317C247.83 267.244 248.137 267.169 248.442 267.09C248.603 267.048 248.763 267.004 248.923 266.96C249.211 266.881 249.496 266.799 249.78 266.714C249.936 266.667 250.092 266.62 250.247 266.572C250.327 266.547 250.409 266.524 250.488 266.499C250.612 266.459 250.732 266.413 250.856 266.372C251.178 266.265 251.498 266.155 251.814 266.04C252.006 265.97 252.196 265.899 252.385 265.826Z" fill="#E2A029"/>
<path d="M256.58 262.912C253.418 264.711 249.705 265.987 245.753 266.746L242.3 260.977C244.783 260.511 247.121 259.718 249.111 258.6L256.58 262.912Z" fill="#FFBE3D"/>
<path d="M244.536 266.124C244.253 266.17 243.971 266.218 243.686 266.259C243.355 266.307 243.02 266.346 242.686 266.387C242.402 266.422 242.119 266.459 241.833 266.489C241.305 266.544 240.775 266.59 240.243 266.627C240.195 266.63 240.149 266.636 240.101 266.639C239.512 266.678 238.921 266.705 238.33 266.723C238.18 266.728 238.029 266.729 237.879 266.732C237.443 266.741 237.006 266.745 236.57 266.743C236.389 266.742 236.209 266.74 236.028 266.737C235.546 266.729 235.064 266.714 234.583 266.692C234.491 266.688 234.399 266.686 234.307 266.681C233.739 266.652 233.173 266.611 232.608 266.562C232.459 266.549 232.311 266.533 232.162 266.519C231.725 266.477 231.288 266.428 230.854 266.374C230.697 266.354 230.54 266.335 230.383 266.314C229.82 266.238 229.26 266.154 228.704 266.058C228.7 266.057 228.696 266.058 228.692 266.057C228.14 265.961 227.594 265.852 227.051 265.736C226.857 265.695 226.666 265.649 226.474 265.605C226.102 265.52 225.732 265.432 225.365 265.338C225.164 265.286 224.964 265.233 224.765 265.179C224.447 265.092 224.133 264.999 223.82 264.905C223.533 264.819 223.246 264.73 222.963 264.638C222.674 264.544 222.388 264.445 222.104 264.344C221.825 264.245 221.547 264.146 221.273 264.041C220.856 263.881 220.442 263.718 220.037 263.545C219.997 263.528 219.955 263.512 219.915 263.495C219.441 263.29 218.978 263.072 218.522 262.847C218.412 262.793 218.302 262.737 218.193 262.681C217.737 262.449 217.286 262.212 216.85 261.96L216.838 263.747C217.274 263.999 217.725 264.237 218.181 264.469C218.29 264.524 218.399 264.58 218.51 264.634C218.966 264.859 219.429 265.077 219.903 265.282C219.943 265.299 219.984 265.315 220.024 265.332C220.324 265.46 220.625 265.586 220.931 265.707C221.039 265.749 221.151 265.785 221.26 265.827C221.535 265.932 221.814 266.033 222.094 266.132C222.377 266.232 222.662 266.331 222.95 266.425C223.234 266.518 223.522 266.605 223.81 266.692C223.985 266.745 224.156 266.804 224.333 266.855C224.471 266.894 224.612 266.928 224.751 266.966C224.951 267.021 225.152 267.073 225.354 267.125C225.72 267.219 226.089 267.307 226.461 267.392C226.654 267.436 226.845 267.482 227.039 267.523C227.124 267.541 227.206 267.562 227.291 267.58C227.75 267.675 228.213 267.762 228.679 267.843C228.685 267.844 228.69 267.845 228.696 267.846C229.155 267.925 229.617 267.998 230.081 268.064C230.177 268.078 230.274 268.088 230.37 268.101C230.527 268.122 230.685 268.141 230.842 268.161C231.276 268.215 231.713 268.264 232.15 268.306C232.299 268.32 232.447 268.336 232.596 268.349C232.673 268.356 232.748 268.365 232.825 268.371C233.313 268.411 233.803 268.444 234.294 268.469C234.387 268.474 234.481 268.475 234.574 268.479C234.917 268.495 235.261 268.511 235.605 268.52C235.742 268.523 235.879 268.522 236.016 268.524C236.197 268.527 236.377 268.529 236.558 268.53C236.994 268.532 237.431 268.528 237.867 268.519C238.017 268.516 238.168 268.515 238.318 268.51C238.379 268.508 238.438 268.509 238.499 268.507C239.03 268.489 239.56 268.461 240.088 268.426C240.136 268.423 240.184 268.417 240.232 268.414C240.7 268.381 241.166 268.344 241.631 268.298C241.694 268.292 241.758 268.283 241.821 268.276C242.107 268.246 242.39 268.209 242.675 268.174C243.009 268.133 243.343 268.094 243.674 268.046C243.959 268.005 244.241 267.957 244.524 267.911C244.768 267.871 245.015 267.838 245.257 267.794C245.419 267.765 245.581 267.734 245.742 267.703L245.754 265.916C245.352 265.993 244.943 266.058 244.536 266.124Z" fill="#7974F5"/>
<path d="M242.301 260.142L245.754 265.911C235.945 267.795 224.688 266.48 216.85 261.955L224.27 257.643C229.16 260.466 236.173 261.297 242.301 260.142Z" fill="#B391FF"/>
<path d="M125.759 177.044C123.175 167.519 115.075 162.642 106.573 165.363C106.573 165.363 97.255 167.056 93.7423 175.641C90.2295 184.225 96.915 190.671 101.189 194.731C102.989 196.394 104.349 197.68 105.209 198.5C105.521 198.81 105.829 199.127 106.152 199.405C106.212 199.462 106.244 199.493 106.244 199.493L106.252 199.485C109.147 201.95 112.345 203.221 114.671 203.716C118.54 204.538 122.956 203.537 125.162 200.771C127.367 198.006 128.344 186.569 125.759 177.044Z" fill="#FF9F75"/>
<path d="M92.6322 174.709C92.6322 174.709 89.1077 181.669 93.9948 188.684C98.8819 195.697 103.982 198.73 105.209 198.5C106.435 198.27 107.048 197.939 106.709 197.015C106.369 196.091 104.718 193.027 104.718 193.027C104.718 193.027 99.4083 192.568 99.3034 189.144C99.1985 185.721 101.047 185.041 103.253 185.908C105.46 186.775 105.819 188.321 107.102 189.528C108.384 190.734 108.792 193.836 109.716 193.497C110.64 193.157 111.234 192.205 111.186 190.648C111.138 189.092 111.081 187.226 109.157 185.416C107.233 183.606 109.315 180.428 107.372 177.995C105.428 175.562 104.155 174.668 104.155 174.668C104.155 174.668 105.457 176.496 111.642 175.061C117.828 173.626 120.637 173.852 123.079 172.219C125.521 170.587 124.795 167.182 123.2 165.986C121.606 164.789 117.854 164.282 113.449 162.859C109.044 161.436 106.584 162.446 101.332 163.852C96.0804 165.259 91.2734 171.013 92.6322 174.709Z" fill="#E16B40"/>
<path d="M106.238 240.813C106.238 240.813 102.864 221.211 100.692 218.959C98.045 216.305 93.678 214.232 89.304 217.462C84.93 220.692 84.449 225.591 85.578 228.591C86.707 231.591 97.807 256.523 101.13 259.343C104.453 262.163 109.007 261.128 109.892 255.754C110.777 250.38 106.238 240.813 106.238 240.813Z" fill="#E1E8F2"/>
<path d="M140.258 251.252C140.258 251.252 142.904 251.407 143.838 251.407C144.772 251.407 151.933 250.785 153.178 250.785C154.423 250.785 154.423 252.186 154.423 252.186C154.423 252.186 155.669 254.21 155.669 254.988C155.669 255.766 155.669 256.856 155.98 257.634C156.291 258.412 155.824 259.035 155.513 259.658C155.202 260.281 154.423 260.592 153.645 261.059C152.867 261.526 151.933 261.525 151.31 261.214C150.687 260.903 150.688 260.747 151.466 260.28C152.244 259.813 152.867 259.191 152.867 259.191C152.867 259.191 151.933 260.124 150.532 260.28C149.131 260.436 146.951 260.436 145.706 259.813C144.461 259.19 142.282 258.101 142.282 258.101L139.791 257.79L140.258 251.252Z" fill="#FF9F75"/>
<path d="M100.605 256.702C100.605 256.702 102.535 263.072 110.607 262.827C118.679 262.582 138.754 258.862 140.794 258.731C140.794 258.731 143.876 254.774 141.285 250.274C141.285 250.274 128.476 250.421 122.339 249.887C116.202 249.353 97.2919 245.903 100.605 256.702Z" fill="#E1E8F2"/>
<path d="M188.639 226.324C188.639 226.324 190.555 224.869 191.78 225.137C193.006 225.406 197.195 225.706 198.489 225.69C199.783 225.675 202.166 223.163 202.595 222.757C203.024 222.351 203.232 221.501 203.738 220.904C204.243 220.307 204.526 220.375 204.442 219.364C204.358 218.353 205.293 217.35 205.715 216.852C206.136 216.354 207.882 215.098 207.63 214.286C207.376 213.475 206.496 214.01 205.96 214.24C205.424 214.469 203.47 216.576 202.597 217.204C201.724 217.831 199.587 218.843 198.483 218.934C197.38 219.026 196.346 218.834 196.346 218.834C196.346 218.834 196.071 218.857 197.143 218.398C198.216 217.938 198.881 218.16 199.785 217.9C200.689 217.64 201.103 217.05 200.973 216.598C200.843 216.146 199.647 216.246 199.188 216.284C198.729 216.322 195.979 216.643 194.86 216.552C193.742 216.46 192.057 218.45 191.72 218.849C191.383 219.247 189.498 219.96 188.495 220.136C187.491 220.311 188.639 226.324 188.639 226.324Z" fill="#FF9F75"/>
<path d="M148.999 228.629C148.999 228.629 151.451 234.817 159.475 233.904C167.499 232.991 187.196 227.62 189.218 227.32C189.218 227.32 191.962 223.121 189.007 218.851C189.007 218.851 176.254 220.06 170.094 220.036C163.934 220.013 144.803 218.142 148.999 228.629Z" fill="#E1E8F2"/>
<path d="M211.789 164.102C213.805 165.266 215.44 168.098 215.433 170.414L215.393 205.705C215.387 208.021 213.741 208.959 211.725 207.795L201.883 202.113L201.405 202.781L199.485 205.484L197.58 200.572L197.107 199.355L187.265 193.673C185.249 192.509 183.62 189.681 183.627 187.365L183.667 152.074C183.674 149.758 185.313 148.816 187.329 149.98L211.789 164.102Z" fill="#58AFFB"/>
<path d="M194.727 164.48L194.724 165.474C194.722 166.059 194.088 166.423 193.582 166.129L188.898 163.412C188.663 163.275 188.518 163.024 188.519 162.752L188.522 161.758C188.524 161.173 189.158 160.809 189.664 161.103L194.348 163.82C194.583 163.956 194.728 164.208 194.727 164.48Z" fill="white"/>
<path d="M209.545 177.97L209.542 178.966C209.54 179.551 208.907 179.914 208.401 179.622L188.885 168.354C188.649 168.218 188.504 167.966 188.505 167.693L188.508 166.698C188.51 166.113 189.143 165.75 189.649 166.042L209.165 177.309C209.401 177.445 209.546 177.697 209.545 177.97Z" fill="#ADCDFC"/>
<path d="M193.544 177.583L193.54 178.721L190.898 187.745L189.766 187.092L192.397 178.086L188.946 176.094L188.95 174.931L193.544 177.583Z" fill="white"/>
<path d="M198.91 180.682L198.907 181.845L195.924 180.123L195.751 183.619C196.079 183.17 196.581 183.133 197.267 183.529C198.573 184.283 199.147 185.717 199.142 187.381L199.136 189.657C199.131 191.446 198.387 192.182 196.841 191.289C195.284 190.39 194.559 188.807 194.564 187.018L194.566 186.242L195.633 186.858L195.63 187.721C195.627 188.772 195.996 189.624 196.812 190.095C197.618 190.56 198 190.142 198.003 189.091L198.01 186.827C198.013 185.776 197.634 184.918 196.828 184.453C196.208 184.095 195.782 184.25 195.682 185.044L195.681 185.307L194.614 184.691L194.915 178.375L198.91 180.682Z" fill="white"/>
<path d="M206.628 189.447C207.63 190.025 208.073 191.033 208.07 192.146L208.06 195.812C208.057 196.95 207.609 197.442 206.607 196.864C205.616 196.292 205.151 195.271 205.154 194.133L205.164 190.468C205.167 189.355 205.637 188.875 206.628 189.447ZM207.331 195.465L207.341 191.675C207.343 191.037 207.127 190.499 206.626 190.21C206.114 189.915 205.895 190.201 205.893 190.839L205.883 194.63C205.881 195.255 206.097 195.819 206.609 196.114C207.11 196.403 207.329 196.09 207.331 195.465Z" fill="white"/>
<path d="M203.086 188.604C203.083 189.73 202.613 190.21 201.622 189.638C200.642 189.072 200.177 188.052 200.18 186.926L200.19 183.236C200.193 182.123 200.663 181.629 201.643 182.195C202.634 182.767 203.099 183.801 203.096 184.914L203.086 188.604ZM202.357 188.246L202.367 184.443C202.369 183.818 202.153 183.254 201.641 182.959C201.118 182.657 200.921 182.982 200.919 183.607L200.909 187.41C200.907 188.048 201.101 188.573 201.624 188.875C202.136 189.17 202.355 188.884 202.357 188.246Z" fill="white"/>
<path d="M205.769 184.64L206.444 185.03L202.416 194.394L201.73 193.998L205.769 184.64Z" fill="white"/>
<path d="M358.527 235.629L362.057 233.577L361.99 257.547L358.459 259.599L358.527 235.629Z" fill="#00A935"/>
<path d="M365.735 234.988C365.735 234.978 365.735 234.97 365.735 234.96C365.735 234.95 365.735 234.941 365.734 234.931C365.733 234.921 365.732 234.912 365.731 234.902C365.73 234.893 365.729 234.882 365.728 234.872C365.727 234.862 365.726 234.853 365.724 234.843C365.723 234.833 365.72 234.822 365.718 234.812C365.716 234.802 365.714 234.791 365.712 234.781C365.711 234.779 365.712 234.776 365.711 234.774C365.711 234.774 365.71 234.773 365.71 234.772C365.708 234.764 365.707 234.756 365.705 234.749C365.702 234.738 365.699 234.728 365.696 234.718C365.693 234.707 365.69 234.696 365.687 234.685C365.684 234.675 365.681 234.664 365.677 234.653C365.674 234.643 365.67 234.633 365.666 234.623C365.662 234.613 365.659 234.602 365.655 234.592C365.651 234.582 365.646 234.571 365.642 234.561C365.638 234.551 365.634 234.54 365.629 234.53C365.624 234.519 365.619 234.508 365.614 234.498C365.609 234.487 365.604 234.476 365.599 234.466L365.598 234.465L354.608 212.584C354.603 212.575 354.599 212.567 354.594 212.558C354.585 212.54 354.574 212.521 354.564 212.504C354.546 212.475 354.529 212.446 354.51 212.419C354.498 212.402 354.487 212.385 354.475 212.369C354.467 212.357 354.458 212.346 354.449 212.335C354.441 212.325 354.433 212.316 354.425 212.306C354.417 212.297 354.409 212.287 354.401 212.278C354.397 212.273 354.392 212.269 354.388 212.264L354.387 212.262C354.384 212.258 354.381 212.255 354.377 212.251C354.369 212.242 354.361 212.233 354.352 212.225C354.343 212.216 354.334 212.207 354.325 212.199C354.316 212.19 354.307 212.181 354.298 212.173C354.289 212.165 354.28 212.156 354.27 212.148C354.261 212.14 354.252 212.133 354.242 212.125C354.233 212.118 354.223 212.111 354.214 212.104C354.205 212.097 354.196 212.091 354.187 212.085C354.178 212.079 354.169 212.073 354.16 212.068C354.151 212.062 354.143 212.057 354.134 212.052C354.132 212.051 354.131 212.049 354.129 212.048C354.122 212.044 354.115 212.041 354.109 212.037C354.101 212.032 354.091 212.028 354.083 212.024C354.075 212.02 354.066 212.016 354.058 212.012C354.05 212.008 354.041 212.005 354.033 212.002C354.025 211.999 354.016 211.995 354.008 211.992C354 211.989 353.99 211.987 353.982 211.984C353.973 211.981 353.965 211.979 353.957 211.977C353.948 211.975 353.94 211.972 353.931 211.971C353.922 211.969 353.913 211.968 353.904 211.967C353.901 211.966 353.898 211.965 353.894 211.965C353.893 211.965 353.892 211.965 353.892 211.965C353.886 211.964 353.881 211.964 353.876 211.963C353.866 211.962 353.857 211.963 353.847 211.963C353.836 211.963 353.825 211.963 353.815 211.964C353.803 211.965 353.792 211.967 353.78 211.969C353.765 211.972 353.751 211.976 353.737 211.981C353.719 211.988 353.702 211.994 353.686 212.004L350.155 214.056C350.216 214.021 350.286 214.009 350.361 214.017C350.437 214.025 350.518 214.054 350.598 214.1C350.687 214.151 350.774 214.224 350.856 214.314C350.856 214.314 350.857 214.315 350.858 214.316C350.94 214.406 351.015 214.514 351.077 214.636L362.067 236.517C362.12 236.624 362.157 236.727 362.179 236.824L362.18 236.825C362.202 236.922 362.208 237.012 362.202 237.093C362.196 237.173 362.177 237.244 362.147 237.302C362.146 237.303 362.145 237.305 362.144 237.306C362.113 237.364 362.072 237.409 362.021 237.439L365.552 235.387C365.594 235.362 365.63 235.327 365.659 235.283C365.665 235.274 365.67 235.264 365.675 235.254C365.676 235.253 365.677 235.252 365.678 235.25C365.68 235.246 365.681 235.243 365.683 235.24C365.689 235.228 365.695 235.214 365.7 235.201C365.704 235.19 365.708 235.18 365.711 235.169C365.714 235.158 365.716 235.147 365.719 235.136C365.721 235.126 365.723 235.116 365.725 235.106C365.727 235.096 365.729 235.085 365.73 235.075C365.731 235.066 365.732 235.057 365.733 235.047C365.733 235.047 365.733 235.044 365.733 235.042C365.734 235.034 365.734 235.026 365.735 235.018C365.735 235.008 365.735 234.998 365.735 234.988Z" fill="#61E041"/>
<path d="M350.597 214.1C350.775 214.202 350.952 214.392 351.076 214.637L362.067 236.517C362.392 237.169 362.102 237.693 361.584 237.394L358.526 235.629L358.458 259.599L342.402 250.329L342.47 226.359L339.514 224.652C338.989 224.349 338.704 223.492 339.038 223.221L350.116 214.083C350.241 213.982 350.42 213.997 350.597 214.1Z" fill="#00CC41"/>
<path d="M346.483 128.863C347.71 129.571 348.7 131.286 348.696 132.696L348.616 160.787C348.612 162.197 347.616 162.764 346.389 162.056L305.275 138.319C304.048 137.611 303.058 135.896 303.062 134.486L303.142 106.395C303.146 104.985 304.142 104.418 305.369 105.126L346.483 128.863Z" fill="#FD2E26"/>
<path d="M268.651 124.098L268.647 125.373C268.645 126.124 267.831 126.592 267.181 126.215L261.166 122.726C260.864 122.551 260.678 122.227 260.679 121.878L260.683 120.603C260.685 119.851 261.5 119.384 262.15 119.761L268.164 123.25C268.466 123.425 268.652 123.749 268.651 124.098Z" fill="white"/>
<path d="M274.632 133.999L274.628 135.277C274.626 136.028 273.813 136.495 273.163 136.12L261.15 129.074C260.847 128.899 260.66 128.576 260.661 128.226L260.665 126.948C260.667 126.197 261.48 125.73 262.13 126.105L274.144 133.15C274.447 133.325 274.633 133.649 274.632 133.999Z" fill="#1AE5FF"/>
<path d="M254.858 194.595L276.56 180.706L283.504 197.199L301.733 184.178L318.226 207.616L340.796 191.991L356.421 207.616L378.122 197.199" stroke="#FB0000" stroke-width="2"/>
<path d="M377.309 188.4C374.053 186.52 371.395 188.034 371.385 191.776C371.374 195.519 374.014 200.075 377.271 201.955C380.527 203.835 383.171 202.329 383.182 198.587C383.192 194.845 380.566 190.28 377.309 188.4Z" fill="#FF4272"/>
<path d="M377.295 192.114C375.823 191.264 374.621 191.948 374.616 193.64C374.612 195.332 375.805 197.392 377.278 198.242C378.75 199.091 379.945 198.411 379.95 196.72C379.954 195.028 378.768 192.964 377.295 192.114Z" fill="#600000"/>
<path d="M316.115 116.877C312.328 114.69 308.742 115.248 307.261 118.694C305.407 123.002 307.515 130.26 311.977 135.279L313.013 132.869C309.99 129.343 308.583 124.358 309.865 121.379C310.91 118.949 313.436 118.557 316.106 120.098C316.757 120.474 317.416 120.965 318.064 121.569L319.1 119.159C318.114 118.211 317.107 117.45 316.115 116.877Z" fill="#F1F1F1"/>
<path d="M319.099 119.159L318.065 121.567C318.228 121.719 318.391 121.878 318.552 122.045C321.988 125.585 323.666 131.023 322.303 134.196C322.253 134.309 322.2 134.419 322.143 134.526C322.123 134.565 322.102 134.601 322.08 134.639C321.086 136.388 319.182 136.815 317.071 135.969C316.742 135.838 316.406 135.674 316.068 135.479C315.978 135.427 315.887 135.372 315.797 135.316C315.632 135.213 315.507 135.128 315.383 135.044L315.326 135.004C315.055 134.813 314.786 134.605 314.515 134.373C314.482 134.344 314.448 134.314 314.413 134.284C314.313 134.196 314.214 134.106 314.114 134.014C314.077 133.98 314.04 133.946 314.003 133.91C313.873 133.787 313.743 133.66 313.615 133.529C313.407 133.314 313.208 133.094 313.013 132.869L311.977 135.279C312.174 135.5 312.374 135.721 312.58 135.932C312.764 136.121 312.949 136.302 313.135 136.477C313.187 136.527 313.239 136.577 313.293 136.626C313.434 136.757 313.577 136.885 313.72 137.01C313.768 137.053 313.815 137.095 313.863 137.135C314.247 137.462 314.634 137.762 315.018 138.031C315.048 138.054 315.079 138.074 315.109 138.094C315.285 138.218 315.46 138.332 315.634 138.442L315.695 138.479C315.815 138.553 315.934 138.625 316.053 138.694C316.337 138.858 316.62 139.007 316.902 139.141C317.115 139.241 317.314 139.327 317.514 139.407C320.735 140.684 323.617 139.878 324.906 136.878C326.841 132.379 324.458 124.661 319.587 119.64C319.424 119.474 319.262 119.314 319.099 119.159Z" fill="#FDB913"/>
<path d="M333.908 135.303L333.906 136.041C333.905 136.475 333.434 136.745 333.058 136.527L329.581 134.51C329.406 134.409 329.299 134.222 329.3 134.02L329.302 133.283C329.303 132.849 329.774 132.579 330.15 132.797L333.627 134.814C333.802 134.915 333.909 135.101 333.908 135.303Z" fill="white"/>
<path d="M344.905 145.317L344.903 146.055C344.902 146.489 344.432 146.759 344.056 146.542L329.571 138.18C329.396 138.079 329.288 137.891 329.289 137.689L329.291 136.951C329.292 136.517 329.762 136.246 330.138 136.463L344.623 144.826C344.798 144.927 344.906 145.115 344.905 145.317Z" fill="white"/>
<path d="M338.912 149.208L338.91 149.946C338.909 150.38 338.439 150.651 338.063 150.434L329.55 145.519C329.375 145.418 329.267 145.23 329.268 145.028L329.27 144.29C329.271 143.856 329.741 143.585 330.117 143.802L338.63 148.717C338.805 148.818 338.913 149.006 338.912 149.208Z" fill="white"/>
<path d="M342.649 147.689L342.647 148.428C342.646 148.862 342.176 149.132 341.8 148.915L329.561 141.849C329.386 141.748 329.278 141.561 329.279 141.359L329.281 140.62C329.282 140.186 329.752 139.916 330.128 140.133L342.367 147.199C342.542 147.3 342.65 147.487 342.649 147.689Z" fill="#58AFFB"/>
</g>
<defs>
<linearGradient id="paint0_linear_4_17482" x1="225.763" y1="296.817" x2="232.33" y2="246.279" gradientUnits="userSpaceOnUse">
<stop stop-color="#1AE5FF"/>
<stop offset="0.5" stop-color="#82EAF7"/>
<stop offset="1" stop-color="#EAEEEE"/>
</linearGradient>
<linearGradient id="paint1_linear_4_17482" x1="396.025" y1="384.817" x2="414.762" y2="342.847" gradientUnits="userSpaceOnUse">
<stop stop-color="#1AE5FF"/>
<stop offset="0.5" stop-color="#82EAF7"/>
<stop offset="1" stop-color="#EAEEEE"/>
</linearGradient>
<linearGradient id="paint2_linear_4_17482" x1="717.601" y1="284.817" x2="688.316" y2="502.458" gradientUnits="userSpaceOnUse">
<stop stop-color="#FACDCD"/>
<stop offset="0.36" stop-color="#D6A29F"/>
<stop offset="0.7" stop-color="#EAEEEE"/>
</linearGradient>
<linearGradient id="paint3_linear_4_17482" x1="917.467" y1="224.817" x2="905.744" y2="224.817" gradientUnits="userSpaceOnUse">
<stop stop-color="#600000"/>
<stop offset="0.5" stop-color="#4BA6EA"/>
<stop offset="1" stop-color="#D6A29F"/>
</linearGradient>
</defs>
</svg>
