<svg width="20" height="50" viewBox="0 0 20 50" fill="none" xmlns="http://www.w3.org/2000/svg">
<path d="M7.9134 10.9353C7.60545 10.1379 7.10366 10.1399 6.7965 10.9353C6.7515 11.0515 6.71517 11.1811 6.68319 11.3157L5.12254 10.0889C5.1486 9.35985 5.05819 8.60832 4.84263 8.05054C4.4573 7.0553 3.83075 7.05734 3.44661 8.05054C3.06207 9.04475 3.06207 10.662 3.44661 11.6562C3.63887 12.1528 3.89194 12.4016 4.14462 12.4016C4.17541 12.4016 4.20542 12.3863 4.23621 12.3792L4.71116 16.4101C4.65904 16.4927 4.6089 16.5865 4.5639 16.7038C4.41466 17.0893 4.33254 17.6012 4.33254 18.1457C4.33254 18.6912 4.41466 19.2031 4.5639 19.5876C4.71787 19.9852 4.92001 20.1841 5.12215 20.1841C5.32429 20.1841 5.52642 19.9852 5.6804 19.5876C5.82963 19.2031 5.91175 18.6902 5.91175 18.1457C5.91175 17.6012 5.82963 17.0893 5.6804 16.7038C5.51813 16.2847 5.30218 16.092 5.08938 16.1154L4.61443 12.0835C4.69615 11.9693 4.77433 11.8347 4.84342 11.6573C4.91211 11.4798 4.96462 11.2769 5.00884 11.0658L6.56989 12.2936C6.5612 12.8432 6.63542 13.401 6.79769 13.8201C6.95166 14.2178 7.1538 14.4166 7.35594 14.4166C7.55847 14.4166 7.76061 14.2178 7.91458 13.8201C8.22095 13.0237 8.22095 11.7307 7.9134 10.9353ZM5.51616 18.1457C5.51616 18.4179 5.4751 18.6739 5.40048 18.8666C5.24611 19.2643 4.9966 19.2643 4.84223 18.8666C4.76801 18.6739 4.72655 18.4179 4.72655 18.1457C4.72655 17.8734 4.76761 17.6175 4.84223 17.4247C4.91922 17.2259 5.02029 17.127 5.12136 17.127C5.22243 17.127 5.3235 17.2269 5.40048 17.4247C5.4751 17.6175 5.51616 17.8734 5.51616 18.1457ZM3.72534 10.9353C3.49477 10.3388 3.49477 9.368 3.72534 8.77147C3.84101 8.47372 3.99262 8.32382 4.14422 8.32382C4.29622 8.32382 4.44782 8.4727 4.5635 8.77147C4.79446 9.368 4.79446 10.3388 4.5635 10.9353C4.33215 11.5308 3.95709 11.5329 3.72534 10.9353ZM7.63427 13.0981C7.4803 13.4948 7.23039 13.4968 7.07563 13.0981C6.92165 12.6994 6.92165 12.0529 7.07563 11.6552C7.15261 11.4564 7.25368 11.3575 7.35515 11.3575C7.45622 11.3575 7.55729 11.4574 7.63427 11.6552C7.78746 12.0539 7.78785 12.7004 7.63427 13.0981Z" fill="black"/>
<path d="M19.2367 41.7021L10.9952 20.4156L11.2744 19.6946C11.3486 19.5029 11.39 19.2439 11.39 18.9737C11.39 18.7035 11.3486 18.4435 11.2744 18.2528L10.2226 15.5363C10.4125 11.4982 9.87479 7.42649 8.76184 4.55294C6.76099 -0.615976 3.50466 -0.614957 1.50341 4.55294C0.534167 7.05634 0 10.3857 0 13.9261C0 17.4666 0.534167 20.7959 1.50341 23.2993C2.61635 26.1739 4.19082 27.5648 5.75582 27.0723L6.80797 29.7888C6.88495 29.9876 6.98602 30.0875 7.08709 30.0875C7.18816 30.0875 7.28923 29.9876 7.36622 29.7888L7.64534 29.0678L8.94661 32.4288C9.00741 32.5869 9.08716 32.6878 9.17283 32.7184L10.3016 33.112L10.4228 35.9264C10.4326 36.1569 10.4725 36.371 10.5361 36.5352L11.1563 38.1372C11.2116 38.2799 11.2815 38.3768 11.3581 38.4155L11.8756 38.6827L11.9795 40.0195C12.0107 40.4233 12.1331 40.7384 12.289 40.819L12.8066 41.0862L12.91 42.422C12.925 42.6198 12.9629 42.8013 13.0178 42.9431L13.6187 44.4951C13.674 44.6378 13.7439 44.7347 13.8204 44.7734L14.4399 45.0936L14.5808 46.7527C14.597 46.9434 14.6341 47.1167 14.6874 47.2554L15.5378 49.4519C15.6124 49.6456 15.7135 49.7506 15.817 49.7506C15.8489 49.7506 15.8809 49.7405 15.9125 49.7201L18.7041 47.9172C18.8522 47.8214 18.9659 47.5144 18.9955 47.128L19.3445 42.6218C19.3706 42.2894 19.3299 41.9437 19.2367 41.7021ZM18.4357 43.9607L10.1575 22.5794L10.437 21.8585L18.5289 42.7595L18.4357 43.9607ZM18.2707 46.097L18.1716 46.1613L9.59922 24.0213L9.87834 23.3003L18.3429 45.1619L18.2707 46.097ZM6.17471 25.2714C6.10009 25.0787 5.99941 24.9727 5.89558 24.9727C5.87426 24.9727 5.85373 24.9768 5.83241 24.9859C4.45416 25.5621 3.04392 24.3955 2.06166 21.8585C1.24126 19.7395 0.789604 16.9231 0.789604 13.9272C0.789604 10.9312 1.24126 8.11378 2.06166 5.99584C3.75496 1.62331 6.51029 1.62127 8.20359 5.99584C9.18547 8.53186 9.6383 12.1732 9.41406 15.7351C9.39353 16.0584 9.43498 16.3877 9.5246 16.6192L10.437 18.9747L8.76184 23.3014L7.36582 26.906L7.36543 26.9071L7.0867 27.627L6.17471 25.2714ZM15.327 46.0267L15.1553 44.0087C15.1217 43.613 15.0005 43.3071 14.8473 43.2276L14.0921 42.837L13.6598 41.7214L13.5283 40.0216C13.4971 39.6178 13.3747 39.3017 13.2188 39.2211L12.7012 38.9539L12.5977 37.6171C12.5666 37.2133 12.4442 36.8982 12.2882 36.8176L11.6301 36.4781L11.1922 35.3472L11.0525 32.0974C11.0324 31.6324 10.8926 31.2623 10.713 31.199L9.4105 30.7442L8.20359 27.627L9.32009 24.7432L17.7246 46.4509L15.9378 47.6042L15.327 46.0267Z" fill="black"/>
</svg>
