<svg width="19" height="18" viewBox="0 0 19 18" fill="none" xmlns="http://www.w3.org/2000/svg">
<path d="M12.9626 15.1334C12.2367 15.8371 11.4441 15.7259 10.6811 15.3926C9.87372 15.0519 9.13298 15.0371 8.28112 15.3926C7.21446 15.8519 6.65149 15.7185 6.01446 15.1334C2.39964 11.4074 2.93298 5.73335 7.03668 5.52594C8.03668 5.5778 8.73298 6.07409 9.31816 6.11854C10.1922 5.94076 11.0293 5.42965 11.9626 5.49631C13.0811 5.5852 13.9256 6.02965 14.4811 6.82965C12.17 8.21483 12.7182 11.2593 14.8367 12.1111C14.4145 13.2222 13.8663 14.3259 12.9552 15.1408L12.9626 15.1334ZM9.24409 5.4815C9.13298 3.82965 10.4737 2.46668 12.0145 2.33335C12.2293 4.24446 10.2811 5.66668 9.24409 5.4815Z" fill="white"/>
</svg>
