<svg width="44" height="44" viewBox="0 0 44 44" fill="none" xmlns="http://www.w3.org/2000/svg">
<path d="M22 4.46875C18.5327 4.46875 15.1432 5.49694 12.2602 7.4233C9.37717 9.34966 7.13014 12.0877 5.80324 15.2911C4.47635 18.4945 4.12917 22.0194 4.80562 25.4202C5.48206 28.8209 7.15175 31.9447 9.60354 34.3965C12.0553 36.8483 15.1791 38.5179 18.5798 39.1944C21.9806 39.8708 25.5055 39.5237 28.7089 38.1968C31.9123 36.8699 34.6504 34.6228 36.5767 31.7398C38.5031 28.8568 39.5313 25.4674 39.5313 22C39.5258 17.3521 37.677 12.8961 34.3904 9.60956C31.1039 6.323 26.6479 4.47421 22 4.46875ZM22 37.4688C18.9406 37.4688 15.9499 36.5615 13.406 34.8618C10.8622 33.1621 8.87954 30.7462 7.70875 27.9196C6.53795 25.0931 6.23162 21.9828 6.82849 18.9822C7.42535 15.9816 8.89861 13.2253 11.0619 11.0619C13.2253 8.8986 15.9816 7.42534 18.9822 6.82848C21.9828 6.23161 25.0931 6.53795 27.9196 7.70874C30.7462 8.87953 33.1621 10.8622 34.8618 13.406C36.5615 15.9498 37.4688 18.9406 37.4688 22C37.4642 26.1012 35.833 30.0331 32.933 32.933C30.0331 35.833 26.1012 37.4642 22 37.4688ZM16.1563 22C16.1563 23.2265 16.5422 24.4219 17.2593 25.4169C17.9765 26.4119 18.9885 27.156 20.1521 27.5439C21.3156 27.9317 22.5717 27.9436 23.7424 27.5779C24.9131 27.2122 25.9391 26.4874 26.675 25.5062C26.8393 25.2874 27.0839 25.1429 27.3548 25.1044C27.6257 25.0658 27.9008 25.1365 28.1196 25.3009C28.3384 25.4652 28.483 25.7097 28.5215 25.9806C28.56 26.2515 28.4893 26.5267 28.325 26.7455C27.3291 28.0726 25.941 29.0527 24.3571 29.5471C22.7733 30.0415 21.0741 30.0251 19.5001 29.5002C17.9261 28.9753 16.5572 27.9685 15.5871 26.6224C14.617 25.2764 14.095 23.6592 14.095 22C14.095 20.3408 14.617 18.7236 15.5871 17.3776C16.5572 16.0315 17.9261 15.0247 19.5001 14.4998C21.0741 13.9749 22.7733 13.9585 24.3571 14.4529C25.941 14.9473 27.3291 15.9274 28.325 17.2545C28.4893 17.4733 28.56 17.7485 28.5215 18.0194C28.483 18.2903 28.3384 18.5348 28.1196 18.6991C27.9008 18.8635 27.6257 18.9342 27.3548 18.8956C27.0839 18.8571 26.8393 18.7126 26.675 18.4937C25.9391 17.5125 24.9131 16.7878 23.7424 16.4221C22.5717 16.0564 21.3156 16.0683 20.1521 16.4561C18.9885 16.844 17.9765 17.5881 17.2593 18.5831C16.5422 19.5781 16.1563 20.7735 16.1563 22Z" fill="white"/>
</svg>
