<svg width="25" height="29" viewBox="0 0 25 29" fill="none" xmlns="http://www.w3.org/2000/svg">
<path d="M24.8508 23.4453L14.2041 11.2804L14.5647 10.8684C14.6605 10.7589 14.7141 10.6109 14.7141 10.4564C14.7141 10.302 14.6605 10.1534 14.5647 10.0444L13.206 8.49199C13.4513 6.18432 12.7566 3.85741 11.3189 2.21524C8.73411 -0.738703 4.52745 -0.738121 1.94216 2.21524C0.690058 3.64588 0 5.54854 0 7.57184C0 9.59513 0.690058 11.4978 1.94216 12.9284C3.37991 14.5712 5.41387 15.3661 7.43559 15.0846L8.7948 16.637C8.89425 16.7507 9.02482 16.8078 9.15538 16.8078C9.28595 16.8078 9.41652 16.7507 9.51597 16.637L9.87655 16.225L11.5576 18.1458C11.6361 18.2361 11.7392 18.2938 11.8498 18.3113L13.308 18.5362L13.4645 20.1446C13.4773 20.2763 13.5288 20.3987 13.6109 20.4925L14.4122 21.408C14.4836 21.4896 14.5738 21.5449 14.6728 21.5671L15.3414 21.7197L15.4756 22.4837C15.5159 22.7145 15.674 22.8946 15.8754 22.9406L16.5441 23.0933L16.6777 23.8567C16.6971 23.9697 16.746 24.0735 16.8169 24.1545L17.5932 25.0414C17.6646 25.123 17.7548 25.1783 17.8538 25.2005L18.654 25.3835L18.8361 26.3316C18.857 26.4406 18.9049 26.5396 18.9738 26.6189L20.0724 27.8741C20.1688 27.9849 20.2993 28.0449 20.433 28.0449C20.4743 28.0449 20.5156 28.039 20.5564 28.0274L24.1627 26.9971C24.354 26.9423 24.5009 26.7669 24.5391 26.5461L24.99 23.9709C25.0237 23.7809 24.9711 23.5834 24.8508 23.4453ZM23.8159 24.736L13.1218 12.517L13.4829 12.105L23.9363 24.0496L23.8159 24.736ZM23.6027 25.9569L23.4747 25.9936L12.4006 13.341L12.7612 12.929L23.6961 25.4225L23.6027 25.9569ZM7.97673 14.0555C7.88033 13.9453 7.75028 13.8847 7.61614 13.8847C7.5886 13.8847 7.56208 13.8871 7.53454 13.8923C5.75406 14.2216 3.93226 13.5549 2.66333 12.105C1.60351 10.8941 1.02004 9.28453 1.02004 7.57242C1.02004 5.86031 1.60351 4.25019 2.66333 3.03982C4.85081 0.541007 8.41024 0.539841 10.5977 3.03982C11.8661 4.48911 12.4511 6.5701 12.1614 8.60563C12.1349 8.79036 12.1885 8.97859 12.3043 9.11087L13.4829 10.457L11.3189 12.9296L9.51546 14.9896L9.51495 14.9902L9.15487 15.4016L7.97673 14.0555ZM19.8 25.9167L19.5782 24.7634C19.5348 24.5373 19.3782 24.3625 19.1804 24.317L18.2047 24.0939L17.6462 23.4563L17.4764 22.4849C17.4361 22.2541 17.278 22.0735 17.0765 22.0274L16.4079 21.8748L16.2743 21.1108C16.234 20.88 16.0759 20.6999 15.8744 20.6539L15.0242 20.4599L14.4586 19.8136L14.278 17.9564C14.252 17.6906 14.0715 17.4791 13.8394 17.443L12.1569 17.1831L10.5977 15.4016L12.0401 13.7536L22.8974 26.1591L20.589 26.8182L19.8 25.9167Z" fill="black"/>
</svg>
