<svg width="29" height="32" viewBox="0 0 29 32" fill="none" xmlns="http://www.w3.org/2000/svg">
<path d="M26.0155 9.95957C25.8318 9.84878 25.6234 9.79046 25.4113 9.79046C25.1992 9.79046 24.9909 9.84878 24.8072 9.95957L20.5417 12.156C20.5073 11.1759 20.1103 10.248 19.4341 9.56755C18.758 8.88713 17.8556 8.50728 16.9167 8.50794H6.04175C5.08034 8.50794 4.15831 8.90691 3.47849 9.61709C2.79867 10.3273 2.41675 11.2905 2.41675 12.2948V19.8686C2.41675 20.8729 2.79867 21.8361 3.47849 22.5463C4.15831 23.2565 5.08034 23.6554 6.04175 23.6554H16.9167C17.8556 23.6561 18.758 23.2762 19.4341 22.5958C20.1103 21.9154 20.5073 20.9875 20.5417 20.0074L24.8434 22.2543C25.0081 22.3425 25.19 22.39 25.3751 22.3931C25.6013 22.3939 25.8232 22.3283 26.0155 22.2038C26.1896 22.0901 26.3332 21.9319 26.4325 21.7442C26.5319 21.5565 26.5838 21.3454 26.5834 21.1309V11.0325C26.5838 10.818 26.5319 10.6069 26.4325 10.4192C26.3332 10.2314 26.1896 10.0733 26.0155 9.95957ZM18.1251 19.8686C18.1251 20.2033 17.9978 20.5244 17.7712 20.7611C17.5446 20.9979 17.2372 21.1309 16.9167 21.1309H6.04175C5.72128 21.1309 5.41393 20.9979 5.18733 20.7611C4.96072 20.5244 4.83341 20.2033 4.83341 19.8686V12.2948C4.83341 11.96 4.96072 11.639 5.18733 11.4022C5.41393 11.1655 5.72128 11.0325 6.04175 11.0325H16.9167C17.2372 11.0325 17.5446 11.1655 17.7712 11.4022C17.9978 11.639 18.1251 11.96 18.1251 12.2948V19.8686ZM24.1667 19.0859L20.5417 17.1925V14.9709L24.1667 13.0774V19.0859Z" fill="black"/>
</svg>
