<svg width="36" height="36" viewBox="0 0 36 36" fill="none" xmlns="http://www.w3.org/2000/svg">
<path opacity="0.6" d="M20.8518 23.7037C20.8518 26.3259 19.711 28.6963 17.8888 30.3111C16.3184 31.7333 14.2443 32.5926 11.9629 32.5926C7.05916 32.5926 3.07397 28.6074 3.07397 23.7037C3.07397 19.6148 5.85916 16.1481 9.62212 15.1259C10.6443 17.7037 12.8369 19.6889 15.548 20.4296C16.2888 20.637 17.074 20.7407 17.8888 20.7407C18.7036 20.7407 19.4888 20.637 20.2295 20.4296C20.6295 21.437 20.8518 22.5481 20.8518 23.7037Z" fill="#87DB1C"/>
<path d="M26.7778 11.8519C26.7778 13.0074 26.5556 14.1185 26.1556 15.1259C25.1333 17.7037 22.9407 19.6889 20.2296 20.4296C19.4889 20.637 18.7037 20.7407 17.8889 20.7407C17.0741 20.7407 16.2889 20.637 15.5481 20.4296C12.837 19.6889 10.6444 17.7037 9.62222 15.1259C9.22222 14.1185 9 13.0074 9 11.8519C9 6.94815 12.9852 2.96296 17.8889 2.96296C22.7926 2.96296 26.7778 6.94815 26.7778 11.8519Z" fill="#87DB1C"/>
<path opacity="0.4" d="M32.7037 23.7037C32.7037 28.6074 28.7185 32.5926 23.8148 32.5926C21.5334 32.5926 19.4593 31.7333 17.8889 30.3111C19.7111 28.6963 20.8519 26.3259 20.8519 23.7037C20.8519 22.5481 20.6297 21.437 20.2297 20.4296C22.9408 19.6889 25.1334 17.7037 26.1556 15.1259C29.9185 16.1481 32.7037 19.6148 32.7037 23.7037Z" fill="#87DB1C"/>
</svg>
